<svg width="242" height="54" viewBox="0 0 242 54" fill="none" xmlns="http://www.w3.org/2000/svg">
<path d="M236.301 0.379883H5.14537C2.46978 0.379883 0.300781 2.51902 0.300781 5.15778V48.8414C0.300781 51.4802 2.46978 53.6193 5.14537 53.6193H236.301C238.977 53.6193 241.146 51.4802 241.146 48.8414V5.15778C241.146 2.51902 238.977 0.379883 236.301 0.379883Z" fill="white"/>
<mask id="mask0_745_1081" style="mask-type:luminance" maskUnits="userSpaceOnUse" x="16" y="13" width="28" height="28">
<path d="M43.9021 13.3462H16.2188V40.6485H43.9021V13.3462Z" fill="white"/>
</mask>
<g mask="url(#mask0_745_1081)">
<path d="M43.3505 27.3031C43.3505 26.3351 43.2625 25.4043 43.0989 24.5107H30.0625V29.7913H37.5118C37.191 31.4977 36.2158 32.9435 34.7498 33.9115V37.3367H39.2232C41.8405 34.9601 43.3505 31.4604 43.3505 27.3031Z" fill="#4285F4"/>
<path d="M30.057 40.6478C33.7942 40.6478 36.9274 39.4253 39.2175 37.3405L34.7442 33.9153C33.5048 34.7344 31.9192 35.2183 30.057 35.2183C26.4518 35.2183 23.4004 32.8169 22.3119 29.5903H17.6875V33.1272C19.9651 37.5887 24.6461 40.6478 30.057 40.6478Z" fill="#34A853"/>
<path d="M22.3153 29.5866C22.0385 28.7675 21.8812 27.8926 21.8812 26.9929C21.8812 26.0931 22.0385 25.2182 22.3153 24.3992V20.8623H17.6909C16.7536 22.7052 16.2188 24.7901 16.2188 26.9929C16.2188 29.1956 16.7536 31.2806 17.6909 33.1235L22.3153 29.5866Z" fill="#FBBC04"/>
<path d="M30.057 18.7757C32.0891 18.7757 33.9137 19.4644 35.3482 20.817L39.3183 16.9016C36.9212 14.6989 33.7879 13.3462 30.057 13.3462C24.6461 13.3462 19.9651 16.4053 17.6875 20.8667L22.3119 24.4036C23.4004 21.177 26.4518 18.7757 30.057 18.7757Z" fill="#E94235"/>
</g>
<path d="M66.3956 30.3293C66.3956 30.0494 66.3515 29.8006 66.2632 29.5828C66.1812 29.365 66.033 29.166 65.8186 28.9855C65.604 28.8052 65.3013 28.631 64.9102 28.463C64.5254 28.2888 64.0333 28.1114 63.4341 27.9311C62.778 27.7321 62.1724 27.5112 61.6174 27.2685C61.0685 27.0196 60.5892 26.7335 60.1791 26.41C59.7691 26.0803 59.4506 25.7039 59.2234 25.2809C58.9963 24.8516 58.8828 24.357 58.8828 23.7971C58.8828 23.2434 58.9995 22.7394 59.2329 22.2853C59.4726 21.8312 59.8101 21.4393 60.2454 21.1095C60.6869 20.7735 61.2074 20.5154 61.8066 20.3349C62.4059 20.1483 63.0682 20.0551 63.7937 20.0551C64.8155 20.0551 65.6955 20.2417 66.4336 20.6149C67.178 20.9883 67.7488 21.489 68.1462 22.1174C68.55 22.7457 68.7518 23.4393 68.7518 24.1983H66.3956C66.3956 23.7504 66.2979 23.3554 66.1023 23.0132C65.9131 22.6648 65.623 22.3911 65.2318 22.192C64.847 21.993 64.3581 21.8933 63.7653 21.8933C63.2039 21.8933 62.737 21.9774 62.3648 22.1453C61.9927 22.3134 61.7151 22.5404 61.5322 22.8265C61.3493 23.1128 61.2578 23.4362 61.2578 23.7971C61.2578 24.0521 61.3177 24.2854 61.4376 24.497C61.5574 24.7023 61.7404 24.8951 61.9864 25.0756C62.2323 25.2498 62.5414 25.4147 62.9136 25.5701C63.2858 25.7256 63.7242 25.875 64.2289 26.018C64.9921 26.2421 65.6576 26.4909 66.2254 26.7646C66.7932 27.0322 67.2663 27.337 67.6447 27.6791C68.0231 28.0213 68.307 28.4101 68.4963 28.8456C68.6855 29.2749 68.7801 29.7632 68.7801 30.3108C68.7801 30.883 68.6635 31.3995 68.4301 31.8598C68.1967 32.3139 67.8623 32.7027 67.4271 33.0263C66.9982 33.3435 66.4809 33.5892 65.8753 33.7634C65.276 33.9315 64.6074 34.0154 63.8694 34.0154C63.2069 34.0154 62.5542 33.9283 61.9107 33.7541C61.2735 33.5799 60.6933 33.3155 60.1697 32.961C59.646 32.6001 59.2298 32.1522 58.9207 31.6172C58.6115 31.0759 58.457 30.4444 58.457 29.7228H60.832C60.832 30.1646 60.9077 30.5409 61.0591 30.8519C61.2168 31.163 61.4344 31.418 61.712 31.6172C61.9896 31.8101 62.3112 31.9531 62.6771 32.0464C63.0493 32.1398 63.4467 32.1864 63.8694 32.1864C64.4245 32.1864 64.8881 32.1086 65.2602 31.9531C65.6388 31.7975 65.9225 31.5798 66.1119 31.2999C66.3011 31.02 66.3956 30.6964 66.3956 30.3293ZM73.0949 23.7317V33.8288H70.805V23.7317H73.0949ZM70.6536 21.0815C70.6536 20.7394 70.7671 20.4563 70.9943 20.2323C71.2276 20.0021 71.5495 19.887 71.9594 19.887C72.3631 19.887 72.6817 20.0021 72.9151 20.2323C73.1484 20.4563 73.2651 20.7394 73.2651 21.0815C73.2651 21.4175 73.1484 21.6975 72.9151 21.9213C72.6817 22.1453 72.3631 22.2573 71.9594 22.2573C71.5495 22.2573 71.2276 22.1453 70.9943 21.9213C70.7671 21.6975 70.6536 21.4175 70.6536 21.0815ZM82.1501 23.7317H84.2223V33.5488C84.2223 34.4572 84.0267 35.2286 83.6356 35.8631C83.2446 36.4977 82.6989 36.9799 81.9987 37.3096C81.2984 37.6455 80.4878 37.8134 79.567 37.8134C79.1758 37.8134 78.7406 37.7575 78.2611 37.6455C77.788 37.5336 77.3275 37.3531 76.8797 37.1043C76.4382 36.8617 76.0692 36.5413 75.7727 36.1431L76.8418 34.818C77.2076 35.2473 77.6114 35.5614 78.053 35.7604C78.4945 35.9596 78.9582 36.0591 79.4439 36.0591C79.9675 36.0591 80.4121 35.9628 80.7781 35.7699C81.1503 35.5833 81.4373 35.3064 81.6391 34.9393C81.841 34.5723 81.9419 34.1244 81.9419 33.5955V26.018L82.1501 23.7317ZM75.1955 28.8923V28.6963C75.1955 27.9311 75.29 27.2344 75.4792 26.606C75.6686 25.9714 75.9398 25.4271 76.293 24.9729C76.6462 24.5126 77.0752 24.1611 77.5799 23.9184C78.0845 23.6695 78.6553 23.5451 79.2925 23.5451C79.9548 23.5451 80.5194 23.6634 80.9863 23.8998C81.4594 24.1361 81.8536 24.4752 82.1691 24.9169C82.4844 25.3524 82.7305 25.875 82.9071 26.4846C83.0899 27.0882 83.2256 27.7601 83.3139 28.5004V29.1256C83.232 29.8472 83.0931 30.5067 82.8975 31.1039C82.702 31.7011 82.4434 32.2176 82.1217 32.653C81.8 33.0885 81.4025 33.4245 80.9294 33.6609C80.4627 33.8972 79.9107 34.0154 79.2737 34.0154C78.6491 34.0154 78.0845 33.8879 77.5799 33.6328C77.0816 33.3778 76.6526 33.0201 76.293 32.5597C75.9398 32.0993 75.6686 31.5581 75.4792 30.936C75.29 30.3076 75.1955 29.6263 75.1955 28.8923ZM77.4758 28.6963V28.8923C77.4758 29.3526 77.5199 29.7819 77.6082 30.18C77.7029 30.5782 77.8448 30.9297 78.034 31.2345C78.2296 31.5332 78.4757 31.7695 78.7722 31.9437C79.0749 32.1118 79.4313 32.1957 79.8413 32.1957C80.3775 32.1957 80.8159 32.0838 81.1565 31.8598C81.5036 31.6359 81.7685 31.3341 81.9513 30.9546C82.1405 30.5689 82.2731 30.1396 82.3487 29.6669V27.9778C82.3109 27.6107 82.232 27.2685 82.1122 26.9512C81.9987 26.634 81.8442 26.3571 81.6486 26.1207C81.453 25.8781 81.2071 25.6915 80.9106 25.5609C80.6141 25.4239 80.264 25.3555 79.8603 25.3555C79.4503 25.3555 79.0939 25.4426 78.791 25.6168C78.4883 25.791 78.2391 26.0305 78.0436 26.3353C77.8543 26.6401 77.7123 26.9948 77.6178 27.3991C77.5231 27.8036 77.4758 28.2359 77.4758 28.6963ZM88.8492 25.8874V33.8288H86.5689V23.7317H88.7167L88.8492 25.8874ZM88.4424 28.407L87.7043 28.3977C87.7106 27.6822 87.8116 27.0259 88.0071 26.4287C88.209 25.8314 88.4865 25.3181 88.8398 24.889C89.1994 24.4596 89.6283 24.13 90.1266 23.8998C90.6249 23.6634 91.18 23.5451 91.7919 23.5451C92.284 23.5451 92.7287 23.6135 93.1261 23.7505C93.5297 23.8811 93.8736 24.0957 94.1575 24.3944C94.4476 24.6929 94.6684 25.0817 94.8198 25.5609C94.9712 26.0336 95.0469 26.6153 95.0469 27.3059V33.8288H92.7571V27.2965C92.7571 26.8113 92.6846 26.4287 92.5394 26.1487C92.4007 25.8626 92.1957 25.6604 91.9244 25.5422C91.6595 25.4177 91.3282 25.3555 90.9308 25.3555C90.5398 25.3555 90.1897 25.4364 89.8805 25.5981C89.5714 25.7599 89.3097 25.9808 89.0953 26.2608C88.8871 26.5406 88.7263 26.8641 88.6126 27.2312C88.4991 27.5983 88.4424 27.9902 88.4424 28.407ZM104.641 23.7317V33.8288H102.352V23.7317H104.641ZM102.2 21.0815C102.2 20.7394 102.314 20.4563 102.541 20.2323C102.774 20.0021 103.096 19.887 103.506 19.887C103.91 19.887 104.228 20.0021 104.462 20.2323C104.695 20.4563 104.812 20.7394 104.812 21.0815C104.812 21.4175 104.695 21.6975 104.462 21.9213C104.228 22.1453 103.91 22.2573 103.506 22.2573C103.096 22.2573 102.774 22.1453 102.541 21.9213C102.314 21.6975 102.2 21.4175 102.2 21.0815ZM109.401 25.8874V33.8288H107.12V23.7317H109.268L109.401 25.8874ZM108.994 28.407L108.256 28.3977C108.262 27.6822 108.363 27.0259 108.559 26.4287C108.761 25.8314 109.038 25.3181 109.391 24.889C109.751 24.4596 110.18 24.13 110.678 23.8998C111.177 23.6634 111.732 23.5451 112.344 23.5451C112.836 23.5451 113.28 23.6135 113.678 23.7505C114.081 23.8811 114.425 24.0957 114.709 24.3944C114.999 24.6929 115.22 25.0817 115.371 25.5609C115.523 26.0336 115.598 26.6153 115.598 27.3059V33.8288H113.309V27.2965C113.309 26.8113 113.236 26.4287 113.091 26.1487C112.952 25.8626 112.747 25.6604 112.476 25.5422C112.211 25.4177 111.88 25.3555 111.483 25.3555C111.091 25.3555 110.741 25.4364 110.432 25.5981C110.123 25.7599 109.861 25.9808 109.647 26.2608C109.439 26.5406 109.278 26.8641 109.164 27.2312C109.051 27.5983 108.994 27.9902 108.994 28.407ZM125.534 31.5892L127.899 23.7317H129.356L128.959 26.0834L126.575 33.8288H125.269L125.534 31.5892ZM124.143 23.7317L125.988 31.6265L126.139 33.8288H124.682L121.91 23.7317H124.143ZM131.571 31.5332L133.359 23.7317H135.582L132.819 33.8288H131.362L131.571 31.5332ZM129.602 23.7317L131.94 31.4958L132.233 33.8288H130.927L128.514 26.074L128.117 23.7317H129.602ZM139.575 23.7317V33.8288H137.286V23.7317H139.575ZM137.134 21.0815C137.134 20.7394 137.248 20.4563 137.475 20.2323C137.708 20.0021 138.03 19.887 138.44 19.887C138.844 19.887 139.163 20.0021 139.395 20.2323C139.629 20.4563 139.745 20.7394 139.745 21.0815C139.745 21.4175 139.629 21.6975 139.395 21.9213C139.163 22.1453 138.844 22.2573 138.44 22.2573C138.03 22.2573 137.708 22.1453 137.475 21.9213C137.248 21.6975 137.134 21.4175 137.134 21.0815ZM146.766 23.7317V25.3741H140.995V23.7317H146.766ZM142.66 21.2588H144.94V31.0387C144.94 31.3496 144.984 31.5892 145.073 31.7571C145.167 31.9189 145.297 32.0278 145.461 32.0838C145.625 32.1398 145.818 32.1677 146.038 32.1677C146.196 32.1677 146.347 32.1585 146.492 32.1398C146.637 32.1211 146.753 32.1025 146.842 32.0838L146.852 33.8008C146.662 33.8568 146.442 33.9066 146.19 33.9502C145.944 33.9937 145.66 34.0154 145.337 34.0154C144.814 34.0154 144.351 33.9252 143.946 33.7449C143.544 33.5582 143.228 33.2564 143.001 32.8396C142.774 32.4229 142.66 31.8692 142.66 31.1786V21.2588ZM150.779 19.4951V33.8288H148.507V19.4951H150.779ZM150.381 28.407L149.644 28.3977C149.649 27.701 149.747 27.057 149.937 26.4659C150.132 25.875 150.404 25.3617 150.75 24.9262C151.104 24.4845 151.526 24.1455 152.017 23.9091C152.51 23.6665 153.056 23.5451 153.655 23.5451C154.16 23.5451 154.614 23.6135 155.017 23.7505C155.428 23.8872 155.781 24.1081 156.077 24.4129C156.373 24.7116 156.598 25.1035 156.749 25.5888C156.906 26.0679 156.985 26.6527 156.985 27.3432V33.8288H154.696V27.3246C154.696 26.8393 154.624 26.4535 154.479 26.1674C154.34 25.8813 154.134 25.6759 153.863 25.5514C153.591 25.4208 153.26 25.3555 152.87 25.3555C152.459 25.3555 152.096 25.4364 151.782 25.5981C151.472 25.7599 151.213 25.9808 151.006 26.2608C150.798 26.5406 150.64 26.8641 150.532 27.2312C150.431 27.5983 150.381 27.9902 150.381 28.407ZM174.925 26.886V32.0744C174.73 32.3295 174.424 32.6095 174.008 32.9143C173.598 33.2129 173.053 33.4711 172.372 33.6889C171.689 33.9066 170.841 34.0154 169.826 34.0154C168.961 34.0154 168.169 33.8724 167.451 33.5862C166.731 33.2938 166.11 32.8676 165.586 32.3077C165.069 31.7478 164.669 31.0666 164.385 30.2641C164.101 29.4553 163.959 28.5345 163.959 27.5018V26.5593C163.959 25.5329 164.089 24.6183 164.348 23.8157C164.612 23.007 164.991 22.3227 165.483 21.7627C165.974 21.2029 166.568 20.7798 167.261 20.4936C167.962 20.2013 168.753 20.0551 169.636 20.0551C170.766 20.0551 171.699 20.2417 172.437 20.6149C173.181 20.982 173.756 21.4921 174.16 22.1453C174.563 22.7986 174.819 23.5451 174.925 24.385H172.599C172.522 23.9122 172.374 23.4892 172.153 23.1158C171.938 22.7426 171.63 22.4502 171.226 22.2387C170.828 22.021 170.312 21.9121 169.674 21.9121C169.126 21.9121 168.643 22.0147 168.226 22.22C167.811 22.4253 167.463 22.727 167.185 23.1252C166.914 23.5233 166.709 24.0086 166.571 24.581C166.432 25.1534 166.363 25.8066 166.363 26.5406V27.5018C166.363 28.2484 166.442 28.911 166.6 29.4895C166.763 30.0681 166.997 30.5565 167.299 30.9546C167.609 31.3528 167.984 31.6545 168.425 31.8598C168.867 32.0589 169.365 32.1585 169.92 32.1585C170.463 32.1585 170.907 32.1149 171.255 32.0278C171.602 31.9344 171.876 31.8256 172.078 31.7011C172.286 31.5705 172.446 31.4461 172.56 31.3279V28.631H169.693V26.886H174.925ZM176.894 28.8923V28.6777C176.894 27.9498 177.002 27.2748 177.216 26.6527C177.429 26.0243 177.739 25.4799 178.142 25.0196C178.553 24.553 179.052 24.1922 179.639 23.9371C180.231 23.6758 180.899 23.5451 181.644 23.5451C182.394 23.5451 183.063 23.6758 183.65 23.9371C184.242 24.1922 184.745 24.553 185.154 25.0196C185.564 25.4799 185.877 26.0243 186.091 26.6527C186.306 27.2748 186.413 27.9498 186.413 28.6777V28.8923C186.413 29.6202 186.306 30.2952 186.091 30.9173C185.877 31.5394 185.564 32.0838 185.154 32.5504C184.745 33.0107 184.246 33.3715 183.66 33.6328C183.073 33.8879 182.407 34.0154 181.662 34.0154C180.912 34.0154 180.241 33.8879 179.647 33.6328C179.061 33.3715 178.563 33.0107 178.152 32.5504C177.742 32.0838 177.429 31.5394 177.216 30.9173C177.002 30.2952 176.894 29.6202 176.894 28.8923ZM179.175 28.6777V28.8923C179.175 29.3465 179.222 29.7757 179.316 30.18C179.41 30.5845 179.56 30.939 179.76 31.2438C179.962 31.5488 180.221 31.7882 180.537 31.9624C180.852 32.1366 181.228 32.2237 181.662 32.2237C182.086 32.2237 182.451 32.1366 182.76 31.9624C183.075 31.7882 183.334 31.5488 183.536 31.2438C183.738 30.939 183.887 30.5845 183.981 30.18C184.082 29.7757 184.133 29.3465 184.133 28.8923V28.6777C184.133 28.2297 184.082 27.8066 183.981 27.4085C183.887 27.0042 183.736 26.6464 183.527 26.3353C183.325 26.0243 183.066 25.7816 182.751 25.6074C182.441 25.4271 182.073 25.3368 181.644 25.3368C181.215 25.3368 180.843 25.4271 180.527 25.6074C180.218 25.7816 179.962 26.0243 179.76 26.3353C179.56 26.6464 179.41 27.0042 179.316 27.4085C179.222 27.8066 179.175 28.2297 179.175 28.6777ZM187.888 28.8923V28.6777C187.888 27.9498 187.996 27.2748 188.211 26.6527C188.425 26.0243 188.734 25.4799 189.138 25.0196C189.548 24.553 190.046 24.1922 190.633 23.9371C191.225 23.6758 191.894 23.5451 192.639 23.5451C193.389 23.5451 194.059 23.6758 194.644 23.9371C195.238 24.1922 195.739 24.553 196.149 25.0196C196.559 25.4799 196.871 26.0243 197.086 26.6527C197.3 27.2748 197.407 27.9498 197.407 28.6777V28.8923C197.407 29.6202 197.3 30.2952 197.086 30.9173C196.871 31.5394 196.559 32.0838 196.149 32.5504C195.739 33.0107 195.241 33.3715 194.654 33.6328C194.067 33.8879 193.403 34.0154 192.658 34.0154C191.906 34.0154 191.235 33.8879 190.643 33.6328C190.056 33.3715 189.557 33.0107 189.148 32.5504C188.737 32.0838 188.425 31.5394 188.211 30.9173C187.996 30.2952 187.888 29.6202 187.888 28.8923ZM190.169 28.6777V28.8923C190.169 29.3465 190.216 29.7757 190.31 30.18C190.406 30.5845 190.554 30.939 190.756 31.2438C190.958 31.5488 191.216 31.7882 191.531 31.9624C191.847 32.1366 192.222 32.2237 192.658 32.2237C193.08 32.2237 193.446 32.1366 193.756 31.9624C194.071 31.7882 194.329 31.5488 194.531 31.2438C194.733 30.939 194.881 30.5845 194.976 30.18C195.077 29.7757 195.127 29.3465 195.127 28.8923V28.6777C195.127 28.2297 195.077 27.8066 194.976 27.4085C194.881 27.0042 194.73 26.6464 194.521 26.3353C194.32 26.0243 194.062 25.7816 193.746 25.6074C193.437 25.4271 193.068 25.3368 192.639 25.3368C192.21 25.3368 191.837 25.4271 191.522 25.6074C191.213 25.7816 190.958 26.0243 190.756 26.3353C190.554 26.6464 190.406 27.0042 190.31 27.4085C190.216 27.8066 190.169 28.2297 190.169 28.6777ZM205.877 23.7317H207.949V33.5488C207.949 34.4572 207.752 35.2286 207.362 35.8631C206.97 36.4977 206.425 36.9799 205.725 37.3096C205.024 37.6455 204.214 37.8134 203.293 37.8134C202.902 37.8134 202.466 37.7575 201.987 37.6455C201.514 37.5336 201.054 37.3531 200.606 37.1043C200.164 36.8617 199.795 36.5413 199.499 36.1431L200.568 34.818C200.934 35.2473 201.338 35.5614 201.78 35.7604C202.221 35.9596 202.685 36.0591 203.171 36.0591C203.694 36.0591 204.138 35.9628 204.504 35.7699C204.876 35.5833 205.164 35.3064 205.365 34.9393C205.567 34.5723 205.668 34.1244 205.668 33.5955V26.018L205.877 23.7317ZM198.921 28.8923V28.6963C198.921 27.9311 199.017 27.2344 199.205 26.606C199.395 25.9714 199.666 25.4271 200.019 24.9729C200.372 24.5126 200.801 24.1611 201.306 23.9184C201.81 23.6695 202.382 23.5451 203.018 23.5451C203.681 23.5451 204.246 23.6634 204.713 23.8998C205.186 24.1361 205.579 24.4752 205.895 24.9169C206.21 25.3524 206.457 25.875 206.633 26.4846C206.817 27.0882 206.952 27.7601 207.039 28.5004V29.1256C206.958 29.8472 206.819 30.5067 206.624 31.1039C206.428 31.7011 206.17 32.2176 205.848 32.653C205.527 33.0885 205.129 33.4245 204.656 33.6609C204.189 33.8972 203.637 34.0154 202.999 34.0154C202.375 34.0154 201.81 33.8879 201.306 33.6328C200.808 33.3778 200.379 33.0201 200.019 32.5597C199.666 32.0993 199.395 31.5581 199.205 30.936C199.017 30.3076 198.921 29.6263 198.921 28.8923ZM201.202 28.6963V28.8923C201.202 29.3526 201.247 29.7819 201.334 30.18C201.429 30.5782 201.571 30.9297 201.76 31.2345C201.955 31.5332 202.202 31.7695 202.498 31.9437C202.801 32.1118 203.157 32.1957 203.568 32.1957C204.104 32.1957 204.542 32.0838 204.883 31.8598C205.229 31.6359 205.495 31.3341 205.677 30.9546C205.867 30.5689 205.999 30.1396 206.075 29.6669V27.9778C206.037 27.6107 205.958 27.2685 205.838 26.9512C205.725 26.634 205.571 26.3571 205.374 26.1207C205.179 25.8781 204.933 25.6915 204.637 25.5609C204.34 25.4239 203.99 25.3555 203.586 25.3555C203.176 25.3555 202.821 25.4426 202.517 25.6168C202.214 25.791 201.965 26.0305 201.77 26.3353C201.58 26.6401 201.439 26.9948 201.344 27.3991C201.25 27.8036 201.202 28.2359 201.202 28.6963ZM212.755 19.4951V33.8288H210.465V19.4951H212.755ZM219.767 34.0154C219.01 34.0154 218.325 33.8942 217.713 33.6515C217.108 33.4026 216.59 33.0574 216.161 32.6156C215.739 32.174 215.414 31.6545 215.187 31.0572C214.96 30.46 214.846 29.8161 214.846 29.1256V28.7522C214.846 27.9622 214.962 27.2468 215.196 26.606C215.43 25.9652 215.754 25.4177 216.171 24.9636C216.587 24.5032 217.079 24.1517 217.648 23.9091C218.215 23.6665 218.83 23.5451 219.493 23.5451C220.224 23.5451 220.865 23.6665 221.413 23.9091C221.962 24.1517 222.416 24.4939 222.776 24.9356C223.141 25.3711 223.413 25.8905 223.589 26.4941C223.773 27.0974 223.864 27.7631 223.864 28.4909V29.4521H215.954V27.8377H221.612V27.6604C221.6 27.2561 221.516 26.8766 221.366 26.522C221.22 26.1674 220.996 25.8813 220.694 25.6635C220.391 25.4456 219.987 25.3368 219.483 25.3368C219.104 25.3368 218.766 25.4177 218.47 25.5794C218.181 25.7351 217.937 25.9621 217.742 26.2608C217.547 26.5593 217.394 26.9201 217.288 27.3432C217.187 27.7601 217.136 28.2297 217.136 28.7522V29.1256C217.136 29.5673 217.197 29.9778 217.316 30.3573C217.441 30.7307 217.626 31.0572 217.865 31.3372C218.104 31.6172 218.395 31.8381 218.736 31.9998C219.076 32.1553 219.464 32.2331 219.898 32.2331C220.448 32.2331 220.937 32.1242 221.366 31.9065C221.795 31.6887 222.167 31.3808 222.483 30.9825L223.684 32.1305C223.463 32.4477 223.176 32.7526 222.823 33.045C222.47 33.3311 222.037 33.5644 221.526 33.7449C221.022 33.9252 220.435 34.0154 219.767 34.0154Z" fill="#1F1F1F"/>
</svg>
