<svg width="28" height="28" viewBox="0 0 28 28" fill="none" xmlns="http://www.w3.org/2000/svg">
<path d="M19.7386 6.76705L8.27045 12.5011M8.27045 15.4989L19.7023 21.2148M8.54545 14C8.54545 15.8075 7.0802 17.2727 5.27273 17.2727C3.46525 17.2727 2 15.8075 2 14C2 12.1925 3.46525 10.7273 5.27273 10.7273C7.0802 10.7273 8.54545 12.1925 8.54545 14ZM26 5.27273C26 7.0802 24.5348 8.54545 22.7273 8.54545C20.9198 8.54545 19.4545 7.0802 19.4545 5.27273C19.4545 3.46525 20.9198 2 22.7273 2C24.5348 2 26 3.46525 26 5.27273ZM26 22.7273C26 24.5348 24.5348 26 22.7273 26C20.9198 26 19.4545 24.5348 19.4545 22.7273C19.4545 20.9198 20.9198 19.4545 22.7273 19.4545C24.5348 19.4545 26 20.9198 26 22.7273Z" stroke="#572E16" stroke-width="2.5" stroke-linecap="round" stroke-linejoin="round"/>
</svg>
