<svg width="241" height="27" viewBox="0 0 241 27" fill="none" xmlns="http://www.w3.org/2000/svg">
    <path
        d="M84.0096 1.4668C87.0409 1.47461 89.2831 2.98242 89.2752 5.2793C89.2831 7.39648 87.4627 8.81055 84.869 9.06836V11.6543H90.494V13.0762H77.5877V11.6543H83.1502V9.06836C80.5877 8.81055 78.7674 7.39648 78.7752 5.2793C78.7674 2.98242 81.0018 1.47461 84.0096 1.4668ZM80.4784 5.2793C80.4706 6.80273 81.9471 7.7168 84.0096 7.7168C86.1034 7.7168 87.5721 6.80273 87.5721 5.2793C87.5721 3.80273 86.1034 2.86523 84.0096 2.87305C81.9471 2.86523 80.4706 3.80273 80.4784 5.2793ZM102.822 3.7168V5.10742H93.0721V0.857422H94.7752V3.7168H102.822ZM91.4002 7.57617V6.18555H104.306V7.57617H91.4002ZM92.9315 9.9043V8.56055H102.728V12.1699H94.6971V13.2637H103.197V14.623H92.9471V10.9043H101.01V9.9043H92.9315ZM109.822 1.6543C112.064 1.64648 113.697 3.06055 113.713 5.06055C113.697 7.06836 112.064 8.47461 109.822 8.48242C107.603 8.47461 105.939 7.06836 105.947 5.06055C105.939 3.06055 107.603 1.64648 109.822 1.6543ZM105.306 10.4355C107.853 10.4355 111.377 10.4043 114.431 9.9668L114.572 11.2324C111.408 11.834 108.017 11.8574 105.525 11.8574L105.306 10.4355ZM107.666 5.06055C107.658 6.24023 108.588 6.9668 109.822 6.9668C111.072 6.9668 112.002 6.24023 112.01 5.06055C112.002 3.88867 111.08 3.1543 109.822 3.1543C108.588 3.1543 107.658 3.88867 107.666 5.06055ZM115.275 14.8105V0.669922H117.01V14.8105H115.275ZM128.853 2.20117V5.87305H130.494V0.919922H132.15V14.1074H130.494V7.2793H128.853V11.1543H123.306V2.20117H128.853ZM124.931 9.7793H127.228V3.57617H124.931V9.7793ZM133.385 14.7949V0.669922H135.056V14.7949H133.385ZM142.041 4.06055C142.025 6.6543 143.392 9.24805 145.681 10.2324L144.65 11.623C143.025 10.873 141.838 9.38086 141.181 7.53711C140.533 9.52148 139.314 11.1465 137.603 11.9512L136.541 10.498C138.892 9.48242 140.267 6.78711 140.275 4.06055V1.81055H142.041V4.06055ZM146.697 14.8105V0.669922H148.447V14.8105H146.697ZM155.853 4.68555C155.853 6.99805 157.213 9.43555 159.494 10.3887L158.541 11.7637C156.869 11.0371 155.65 9.56055 155.002 7.76367C154.353 9.70117 153.111 11.3262 151.463 12.1074L150.463 10.748C152.689 9.7168 154.08 7.08398 154.088 4.68555V3.49805H150.978V2.06055H158.947V3.49805H155.853V4.68555ZM160.525 14.7949V0.669922H162.275V14.7949H160.525Z"
        fill="#572E16" />
    <path d="M2 25.2119H239" stroke="#572E16" stroke-opacity="0.4" stroke-width="3"
        stroke-linecap="round" />
</svg>
    