<svg width="80" height="80" viewBox="0 0 80 80" fill="none" xmlns="http://www.w3.org/2000/svg">
<path d="M40.0131 0C23.3134 0 18.4294 0.0172322 17.4801 0.0960081C14.053 0.380955 11.9205 0.920693 9.59724 2.07771C7.80681 2.96702 6.39476 3.99788 5.00118 5.44292C2.4632 8.07822 0.925023 11.3203 0.368204 15.1742C0.097486 17.0451 0.0187315 17.4267 0.00273453 26.9832C-0.00341816 30.1687 0.00273453 34.3611 0.00273453 39.9843C0.00273453 56.675 0.0211926 61.5554 0.101178 62.5031C0.378049 65.8388 0.901027 67.9374 2.00851 70.233C4.12504 74.6272 8.16735 77.926 12.9295 79.1569C14.5785 79.5815 16.3997 79.8154 18.7377 79.9261C19.7283 79.9692 29.8248 80 39.9275 80C50.0303 80 60.133 79.9877 61.0989 79.9385C63.8061 79.8111 65.3781 79.6 67.1163 79.1507C69.4776 78.545 71.6782 77.431 73.5645 75.8865C75.4508 74.3419 76.9772 72.4041 78.0373 70.2084C79.1233 67.9682 79.6739 65.7896 79.9231 62.6281C79.9772 61.9388 80 50.9489 80 39.9738C80 28.9969 79.9754 18.0274 79.9213 17.3381C79.669 14.1255 79.1183 11.9653 77.9973 9.68205C77.0775 7.81297 76.0561 6.41716 74.5733 4.98996C71.9277 2.46175 68.6914 0.923155 64.8342 0.3668C62.9657 0.0966236 62.5934 0.0166168 53.0322 0H40.0131Z" fill="url(#paint0_radial_792_3729)"/>
<path d="M40.0131 0C23.3134 0 18.4294 0.0172322 17.4801 0.0960081C14.053 0.380955 11.9205 0.920693 9.59724 2.07771C7.80681 2.96702 6.39476 3.99788 5.00118 5.44292C2.4632 8.07822 0.925023 11.3203 0.368204 15.1742C0.097486 17.0451 0.0187315 17.4267 0.00273453 26.9832C-0.00341816 30.1687 0.00273453 34.3611 0.00273453 39.9843C0.00273453 56.675 0.0211926 61.5554 0.101178 62.5031C0.378049 65.8388 0.901027 67.9374 2.00851 70.233C4.12504 74.6272 8.16735 77.926 12.9295 79.1569C14.5785 79.5815 16.3997 79.8154 18.7377 79.9261C19.7283 79.9692 29.8248 80 39.9275 80C50.0303 80 60.133 79.9877 61.0989 79.9385C63.8061 79.8111 65.3781 79.6 67.1163 79.1507C69.4776 78.545 71.6782 77.431 73.5645 75.8865C75.4508 74.3419 76.9772 72.4041 78.0373 70.2084C79.1233 67.9682 79.6739 65.7896 79.9231 62.6281C79.9772 61.9388 80 50.9489 80 39.9738C80 28.9969 79.9754 18.0274 79.9213 17.3381C79.669 14.1255 79.1183 11.9653 77.9973 9.68205C77.0775 7.81297 76.0561 6.41716 74.5733 4.98996C71.9277 2.46175 68.6914 0.923155 64.8342 0.3668C62.9657 0.0966236 62.5934 0.0166168 53.0322 0H40.0131Z" fill="url(#paint1_radial_792_3729)"/>
<path d="M39.9937 10.4609C31.9731 10.4609 30.9665 10.496 27.8163 10.6394C24.6723 10.7834 22.5263 11.2813 20.6485 12.0118C18.706 12.7664 17.0584 13.7757 15.4168 15.4183C13.7741 17.0603 12.765 18.7084 12.0082 20.6507C11.2761 22.5296 10.7777 24.6769 10.6362 27.8206C10.4959 30.9716 10.459 31.9791 10.459 40.0019C10.459 48.0247 10.4947 49.0285 10.6374 52.1795C10.782 55.3244 11.2798 57.4711 12.0095 59.3494C12.7644 61.2923 13.7734 62.9404 15.4156 64.5824C17.0565 66.2256 18.7042 67.2374 20.6454 67.9919C22.5244 68.7225 24.6711 69.2204 27.8145 69.3644C30.9647 69.5078 31.9706 69.5428 39.9907 69.5428C48.0119 69.5428 49.0154 69.5078 52.1656 69.3644C55.3096 69.2204 57.4581 68.7225 59.3372 67.9919C61.279 67.2374 62.9242 66.2256 64.5651 64.5824C66.2079 62.9404 67.2169 61.2923 67.9737 59.35C68.6997 57.4711 69.1981 55.3238 69.3457 52.1801C69.4873 49.0291 69.5242 48.0247 69.5242 40.0019C69.5242 31.9791 69.4873 30.9722 69.3457 27.8212C69.1981 24.6763 68.6997 22.5296 67.9737 20.6513C67.2169 18.7084 66.2079 17.0603 64.5651 15.4183C62.9223 13.7751 61.2796 12.7657 59.3353 12.0118C57.4526 11.2813 55.3053 10.7834 52.1613 10.6394C49.0111 10.496 48.0082 10.4609 39.9851 10.4609H39.9937ZM37.3444 15.7845C38.1307 15.7832 39.0081 15.7845 39.9937 15.7845C47.879 15.7845 48.8136 15.8128 51.9275 15.9543C54.8069 16.086 56.3697 16.5673 57.4108 16.9716C58.789 17.5071 59.7716 18.1471 60.8046 19.1811C61.8382 20.215 62.4781 21.1997 63.0146 22.5783C63.4189 23.6184 63.9006 25.1816 64.0317 28.0618C64.1732 31.1759 64.2039 32.1114 64.2039 39.9951C64.2039 47.8789 64.1732 48.8143 64.0317 51.9284C63.9 54.8087 63.4189 56.3719 63.0146 57.412C62.4794 58.7906 61.8382 59.7722 60.8046 60.8055C59.7709 61.8394 58.7896 62.4795 57.4108 63.0149C56.371 63.4211 54.8069 63.9011 51.9275 64.0328C48.8142 64.1744 47.879 64.2052 39.9937 64.2052C32.1078 64.2052 31.1732 64.1744 28.06 64.0328C25.1805 63.8999 23.6177 63.4186 22.5761 63.0143C21.1979 62.4789 20.2135 61.8388 19.1798 60.8049C18.1462 59.7709 17.5063 58.7887 16.9698 57.4095C16.5655 56.3694 16.0838 54.8062 15.9527 51.926C15.8112 48.8119 15.7829 47.8764 15.7829 39.9877C15.7829 32.0991 15.8112 31.1685 15.9527 28.0544C16.0844 25.1742 16.5655 23.611 16.9698 22.5696C17.505 21.1911 18.1462 20.2064 19.1798 19.1724C20.2135 18.1385 21.1979 17.4985 22.5761 16.9618C23.6171 16.5556 25.1805 16.0756 28.06 15.9432C30.7844 15.8202 31.8402 15.7832 37.3444 15.7771V15.7845ZM55.7582 20.6895C55.0572 20.6895 54.3719 20.8974 53.7891 21.287C53.2063 21.6766 52.752 22.2303 52.4839 22.8781C52.2157 23.5259 52.1455 24.2388 52.2824 24.9264C52.4192 25.6141 52.7569 26.2458 53.2526 26.7415C53.7484 27.2372 54.38 27.5747 55.0675 27.7114C55.7551 27.848 56.4677 27.7776 57.1152 27.5091C57.7628 27.2406 58.3162 26.7861 58.7054 26.203C59.0947 25.6198 59.3023 24.9343 59.3021 24.2332C59.3021 22.2761 57.7147 20.6883 55.7582 20.6883V20.6895ZM39.9937 24.8314C31.6181 24.8314 24.8274 31.624 24.8274 40.0019C24.8274 48.3798 31.6181 55.1693 39.9937 55.1693C48.3694 55.1693 55.1583 48.3798 55.1583 40.0019C55.1583 31.624 48.3688 24.8314 39.9931 24.8314H39.9937ZM39.9937 30.1549C45.4303 30.1549 49.838 34.5633 49.838 40.0019C49.838 45.4399 45.4303 49.8489 39.9937 49.8489C34.5566 49.8489 30.1494 45.4399 30.1494 40.0019C30.1494 34.5633 34.5566 30.1549 39.9937 30.1549Z" fill="white"/>
<defs>
<radialGradient id="paint0_radial_792_3729" cx="0" cy="0" r="1" gradientUnits="userSpaceOnUse" gradientTransform="translate(21.2501 86.1617) rotate(-90) scale(79.2859 73.7421)">
<stop stop-color="#FFDD55"/>
<stop offset="0.1" stop-color="#FFDD55"/>
<stop offset="0.5" stop-color="#FF543E"/>
<stop offset="1" stop-color="#C837AB"/>
</radialGradient>
<radialGradient id="paint1_radial_792_3729" cx="0" cy="0" r="1" gradientUnits="userSpaceOnUse" gradientTransform="translate(-13.4004 5.76307) rotate(78.6806) scale(35.4411 146.09)">
<stop stop-color="#3771C8"/>
<stop offset="0.128" stop-color="#3771C8"/>
<stop offset="1" stop-color="#6600FF" stop-opacity="0"/>
</radialGradient>
</defs>
</svg>
