<svg width="30" height="30" viewBox="0 0 30 30" fill="none" xmlns="http://www.w3.org/2000/svg">
<path fill-rule="evenodd" clip-rule="evenodd" d="M1.31134e-06 15C5.87108e-07 23.2843 6.71573 30 15 30C23.2843 30 30 23.2843 30 15C30 6.71573 23.2843 1.32024e-06 15 -1.31134e-06C6.71573 -2.03558e-06 3.94292e-06 6.71573 1.31134e-06 15ZM12.0661 19.5007C11.5602 19.9704 11.5309 20.7613 12.0007 21.2672C12.4704 21.7731 13.2613 21.8024 13.7672 21.3327L19.6006 15.916C19.8553 15.6795 20 15.3476 20 15C20 14.6524 19.8553 14.3205 19.6006 14.084L13.7672 8.66734C13.2613 8.19759 12.4704 8.22688 12.0007 8.73277C11.5309 9.23866 11.5602 10.0296 12.0661 10.4993L16.913 15L12.0661 19.5007Z" fill="#FFF4DD"/>
</svg>
