<svg width="103" height="25" viewBox="0 0 103 25" fill="none" xmlns="http://www.w3.org/2000/svg">
<path d="M1.97819 23.9998C1.48752 23.4665 1.24219 22.7838 1.24219 21.9518C1.96752 21.9518 2.47952 21.8345 2.77819 21.5998C3.07685 21.3651 3.22619 20.9491 3.22619 20.3518V5.31178C3.22619 4.71445 3.07685 4.29845 2.77819 4.06379C2.47952 3.80779 1.96752 3.67978 1.24219 3.67978C1.24219 3.31712 1.30619 2.95445 1.43419 2.59179C1.56219 2.22912 1.74352 1.91979 1.97819 1.66379H10.2022C10.4369 1.91979 10.6075 2.22912 10.7142 2.59179C10.8422 2.95445 10.9062 3.31712 10.9062 3.67978C10.0529 3.67978 9.43419 3.80779 9.05019 4.06379C8.66619 4.29845 8.47419 4.71445 8.47419 5.31178V21.2798H10.4582C11.6529 21.2798 12.5809 20.7571 13.2422 19.7118C13.9249 18.6451 14.2662 17.2158 14.2662 15.4238H16.5062C16.7835 15.6158 17.0075 15.9785 17.1782 16.5118C17.3489 17.0238 17.4769 17.5891 17.5622 18.2078C17.6475 18.8265 17.6902 19.3918 17.6902 19.9038C17.6902 21.1838 17.4662 22.1865 17.0182 22.9118C16.5702 23.6371 15.7915 23.9998 14.6822 23.9998H1.97819Z" fill="#F9F1E1"/>
<path d="M30.3932 24.4158C28.3239 24.4158 26.5532 23.9358 25.0812 22.9758C23.6092 22.0158 22.4785 20.6718 21.6892 18.9438C20.8999 17.1945 20.5052 15.1678 20.5052 12.8638C20.5052 10.4105 20.9105 8.33045 21.7212 6.62379C22.5319 4.89579 23.6732 3.57312 25.1452 2.65578C26.6385 1.73845 28.3772 1.27979 30.3612 1.27979C32.4305 1.27979 34.2012 1.75979 35.6732 2.71979C37.1665 3.67979 38.3079 5.03445 39.0972 6.78378C39.9079 8.51179 40.3132 10.5385 40.3132 12.8638C40.3132 15.2958 39.8972 17.3758 39.0652 19.1038C38.2545 20.8105 37.1025 22.1225 35.6092 23.0398C34.1372 23.9571 32.3985 24.4158 30.3932 24.4158ZM30.3932 22.0798C30.8839 22.0798 31.3639 21.9518 31.8332 21.6958C32.3025 21.4398 32.7292 20.9811 33.1132 20.3198C33.4972 19.6585 33.7959 18.7198 34.0092 17.5038C34.2439 16.2665 34.3612 14.6771 34.3612 12.7358C34.3612 10.3251 34.1905 8.46912 33.8492 7.16779C33.5079 5.84512 33.0385 4.92779 32.4412 4.41578C31.8652 3.90378 31.2039 3.64779 30.4572 3.64779C29.9665 3.64779 29.4865 3.77579 29.0172 4.03179C28.5479 4.28779 28.1212 4.74645 27.7372 5.40779C27.3532 6.06912 27.0439 7.00779 26.8092 8.22379C26.5959 9.43979 26.4892 11.0185 26.4892 12.9598C26.4892 15.3705 26.6599 17.2371 27.0012 18.5598C27.3425 19.8825 27.8119 20.7998 28.4092 21.3118C29.0065 21.8238 29.6679 22.0798 30.3932 22.0798Z" fill="#F9F1E1"/>
<path d="M55.4027 24.4478C53.1414 24.4478 51.1787 23.9678 49.5147 23.0078C47.872 22.0478 46.6027 20.7145 45.7067 19.0078C44.8107 17.3011 44.3627 15.3491 44.3627 13.1518C44.3627 10.5278 44.8107 8.34112 45.7067 6.59179C46.6027 4.84245 47.84 3.53045 49.4187 2.65578C50.9974 1.75978 52.8107 1.31178 54.8587 1.31178C55.3494 1.31178 55.9147 1.35445 56.5547 1.43979C57.216 1.52512 57.9414 1.71712 58.7307 2.01579C58.944 1.90912 59.232 1.81312 59.5947 1.72779C59.9574 1.62112 60.32 1.52512 60.6827 1.43979C61.0454 1.35445 61.3334 1.31178 61.5467 1.31178C61.824 1.99445 62.0267 2.78378 62.1547 3.67978C62.2827 4.55445 62.368 5.42912 62.4107 6.30379C62.4534 7.15712 62.4747 7.90379 62.4747 8.54379H59.3707C59.1574 7.15712 58.624 6.10112 57.7707 5.37579C56.9174 4.62912 55.9147 4.25578 54.7627 4.25578C53.9094 4.25578 53.1414 4.49045 52.4587 4.95979C51.776 5.42912 51.232 6.25045 50.8267 7.42379C50.4427 8.57579 50.2507 10.2078 50.2507 12.3198C50.2507 14.5811 50.432 16.3731 50.7947 17.6958C51.1787 18.9971 51.7227 19.9358 52.4267 20.5118C53.152 21.0665 54.0267 21.3438 55.0507 21.3438C56.2027 21.3438 57.0454 21.0665 57.5787 20.5118V16.8638C57.5787 16.3091 57.3334 15.9145 56.8427 15.6798C56.352 15.4238 55.6054 15.2958 54.6027 15.2958C54.6027 14.9331 54.6774 14.4958 54.8267 13.9838C54.976 13.4718 55.1574 13.0878 55.3707 12.8318H62.2827C62.9227 12.8318 63.4027 12.9811 63.7227 13.2798C64.0427 13.5571 64.2454 13.8665 64.3307 14.2078C64.4374 14.5491 64.4907 14.8051 64.4907 14.9758C64.4907 15.1891 64.4374 15.3811 64.3307 15.5518C63.9894 15.5518 63.6587 15.5731 63.3387 15.6158C63.04 15.6371 62.7734 15.7011 62.5387 15.8078V19.4878C62.5387 19.9571 62.5707 20.2878 62.6347 20.4798C62.72 20.6718 62.8054 20.8211 62.8907 20.9278C62.9547 20.9918 63.008 21.0665 63.0507 21.1518C63.0934 21.2158 63.1147 21.3331 63.1147 21.5038C63.1147 21.8878 62.7734 22.3145 62.0907 22.7838C61.408 23.2318 60.48 23.6265 59.3067 23.9678C58.1547 24.2878 56.8534 24.4478 55.4027 24.4478Z" fill="#F9F1E1"/>
<path d="M68.1772 23.9998C67.7079 23.4665 67.4732 22.7838 67.4732 21.9518C68.1772 21.9518 68.6678 21.8345 68.9452 21.5998C69.2439 21.3651 69.3932 20.9491 69.3932 20.3518V5.31178C69.3932 4.71445 69.2439 4.29845 68.9452 4.06379C68.6678 3.80779 68.1772 3.67978 67.4732 3.67978C67.4732 2.86912 67.7079 2.19712 68.1772 1.66379H75.9532C76.1665 1.91979 76.3372 2.22912 76.4652 2.59179C76.5932 2.95445 76.6572 3.31712 76.6572 3.67978C75.9532 3.67978 75.4519 3.80779 75.1532 4.06379C74.8758 4.29845 74.7372 4.71445 74.7372 5.31178V20.3518C74.7372 20.9491 74.8758 21.3651 75.1532 21.5998C75.4519 21.8345 75.9532 21.9518 76.6572 21.9518C76.6572 22.3358 76.5932 22.7091 76.4652 23.0718C76.3372 23.4345 76.1665 23.7438 75.9532 23.9998H68.1772Z" fill="#F9F1E1"/>
<path d="M98.8259 24.1918C97.7166 24.1918 96.9166 24.0425 96.4259 23.7438C95.9566 23.4451 95.5193 22.9971 95.1139 22.3998L86.1539 8.79979V20.3518C86.1539 20.9491 86.3566 21.3758 86.7619 21.6318C87.1886 21.8665 87.7646 21.9838 88.4899 21.9838C88.4899 22.7305 88.2446 23.4025 87.7539 23.9998H81.0979C80.6286 23.4238 80.3939 22.7518 80.3939 21.9838C81.1193 21.9838 81.6633 21.8665 82.0259 21.6318C82.4099 21.3758 82.6019 20.9491 82.6019 20.3518V5.31178C82.6019 4.71445 82.3886 4.29845 81.9619 4.06379C81.5566 3.80779 80.9913 3.67978 80.2659 3.67978C80.2659 2.86912 80.5006 2.19712 80.9699 1.66379H85.4179C86.0366 1.66379 86.6553 1.90912 87.2739 2.39979C87.9139 2.86912 88.5006 3.53045 89.0339 4.38379L96.2979 15.8718V5.31178C96.2979 4.71445 96.0953 4.29845 95.6899 4.06379C95.3059 3.80779 94.7513 3.67978 94.0259 3.67978C94.0259 3.31712 94.0899 2.95445 94.2179 2.59179C94.3459 2.22912 94.5273 1.91979 94.7619 1.66379H101.578C102.069 2.21845 102.314 2.89045 102.314 3.67978C101.61 3.67978 101.066 3.80779 100.682 4.06379C100.298 4.29845 100.106 4.71445 100.106 5.31178V24.1918H98.8259Z" fill="#F9F1E1"/>
<path fill-rule="evenodd" clip-rule="evenodd" d="M30.3612 1.77979C30.191 1.77979 30.0229 1.7833 29.8569 1.7903L29.8147 0.791193C29.9951 0.783581 30.1772 0.779785 30.3612 0.779785C30.5492 0.779785 30.7351 0.783604 30.9188 0.791263L30.8772 1.7904C30.7076 1.78333 30.5356 1.77979 30.3612 1.77979ZM29.5553 1.80703C29.2143 1.83053 28.8823 1.86918 28.5594 1.92283L28.3955 0.93635C28.7512 0.877268 29.1149 0.835003 29.4865 0.809393L29.5553 1.80703ZM32.2035 1.92535C31.875 1.87063 31.5357 1.83122 31.1856 1.80732L31.2537 0.809639C31.6345 0.835638 32.0059 0.878669 32.3678 0.938933L32.2035 1.92535ZM54.8587 1.81178C54.6817 1.81178 54.5067 1.81525 54.3338 1.82218L54.2938 0.822976C54.4803 0.81551 54.6686 0.811785 54.8587 0.811785C55.0757 0.811785 55.3045 0.819664 55.5449 0.835162L55.4806 1.83309C55.2589 1.8188 55.0517 1.81178 54.8587 1.81178ZM61.5467 1.80903L62.1843 1.59321C62.1298 1.43231 62.0717 1.27575 62.0099 1.1236L61.8832 0.811785H61.5467C61.4214 0.811785 61.2861 0.823008 61.1433 0.842622L61.2257 1.44217L61.0835 1.49997C61.1375 1.633 61.1887 1.77093 61.2371 1.91382L61.5385 1.81181C61.5412 1.81179 61.544 1.81178 61.5467 1.81178V1.80903ZM54.0198 1.83868C53.6651 1.86183 53.319 1.89988 52.9815 1.9527L52.8269 0.964731C53.1951 0.907101 53.571 0.865836 53.9546 0.840803L54.0198 1.83868ZM56.4886 1.9354C56.2683 1.90603 56.058 1.88196 55.8575 1.86312L55.9511 0.867509C56.1653 0.887637 56.3882 0.913172 56.6198 0.944038C56.7695 0.963386 56.9217 0.987741 57.0761 1.01701L56.8899 1.99952C56.7534 1.97366 56.6204 1.95241 56.4907 1.93567L56.4886 1.9354ZM56.6198 0.944038C56.6201 0.944082 56.6204 0.944127 56.6208 0.944171L56.5547 1.43979L56.6187 0.943896C56.619 0.943944 56.6194 0.94399 56.6198 0.944038ZM61.1023 1.862C61.0097 1.87899 60.9081 1.90041 60.7972 1.92649C60.6606 1.95864 60.524 1.99234 60.3873 2.0276L60.1375 1.05932C60.281 1.02228 60.4246 0.986865 60.5682 0.953076C60.6926 0.923803 60.8106 0.898835 60.9218 0.87842L61.1023 1.862ZM28.2643 1.9765C27.9331 2.04207 27.6113 2.12396 27.299 2.22201L26.9995 1.26794C27.3473 1.15872 27.7043 1.06796 28.0702 0.995532L28.2643 1.9765ZM33.4888 2.23422C33.1724 2.13274 32.8445 2.04807 32.5048 1.98039L32.7002 0.999667C33.0757 1.07449 33.4404 1.16854 33.7942 1.282L33.4888 2.23422ZM52.6735 2.00546C52.3276 2.06986 51.9909 2.15024 51.6631 2.2465L51.3813 1.28703C51.7424 1.18098 52.1121 1.0928 52.4904 1.02236L52.6735 2.00546ZM57.9244 2.26433C57.6485 2.17707 57.3836 2.10538 57.1294 2.04888L57.3464 1.07271C57.6316 1.13612 57.9249 1.21564 58.226 1.3109L57.9244 2.26433ZM60.1423 2.09247C60.0068 2.12927 59.8713 2.1676 59.7358 2.20747L59.7226 2.21135L59.7092 2.21449C59.5956 2.24123 59.4916 2.26865 59.3971 2.29663L59.1134 1.33771C59.2244 1.30488 59.3422 1.27378 59.4667 1.24427C59.6045 1.20382 59.7423 1.16488 59.8802 1.12743L60.1423 2.09247ZM1.75824 1.16379H2.50537V2.16379H2.21369C2.1898 2.19632 2.16671 2.22985 2.14444 2.26438L1.98847 2.16379H1.97819V2.15715L1.30407 1.72237C1.39528 1.58095 1.49711 1.44865 1.60961 1.32592L1.75824 1.16379ZM3.87603 2.16379H2.82167V1.16379H3.87603V2.16379ZM5.2467 2.16379H4.19234V1.16379H5.2467V2.16379ZM6.61737 2.16379H5.56301V1.16379H6.61737V2.16379ZM7.98803 2.16379H6.93368V1.16379H7.98803V2.16379ZM9.3587 2.16379H8.30434V1.16379H9.3587V2.16379ZM9.96459 2.16379H9.67501V1.16379H10.4221L10.5708 1.32592C10.6847 1.45019 10.7862 1.58451 10.8752 1.72847L10.2022 2.14442V2.16379H10.1709L10.0245 2.25423C10.0054 2.22328 9.98542 2.19314 9.96459 2.16379ZM67.9511 1.16379H68.6756V2.16379H68.417C68.3922 2.19802 68.3686 2.2328 68.346 2.26813L68.1826 2.16379H68.1772V2.1603L67.5032 1.72994C67.5921 1.59076 67.6917 1.45858 67.8018 1.33347L67.9511 1.16379ZM69.9716 2.16379H68.9747V1.16379H69.9716V2.16379ZM71.2676 2.16379H70.2707V1.16379H71.2676V2.16379ZM72.5636 2.16379H71.5667V1.16379H72.5636V2.16379ZM73.8596 2.16379H72.8627V1.16379H73.8596V2.16379ZM75.1556 2.16379H74.1587V1.16379H75.1556V2.16379ZM75.703 2.16379H75.4547V1.16379H76.1874L76.3373 1.34369C76.4402 1.46723 76.5339 1.59986 76.6185 1.74104L75.9532 2.13967V2.16379H75.9129L75.7607 2.25503C75.7419 2.22375 75.7227 2.19334 75.703 2.16379ZM80.7439 1.16379H81.5402V2.16379H81.2097C81.185 2.19802 81.1614 2.2328 81.1388 2.26813L80.9754 2.16379H80.9699V2.1603L80.296 1.72994C80.3848 1.59076 80.4845 1.45858 80.5946 1.33347L80.7439 1.16379ZM83.0229 2.16379H81.8823V1.16379H83.0229V2.16379ZM84.5055 2.16379H83.365V1.16379H84.5055V2.16379ZM85.4179 2.16379H84.8477V1.16379H85.4179C85.5757 1.16379 85.733 1.17693 85.8897 1.20301L85.7254 2.18943C85.6223 2.17226 85.5199 2.16379 85.4179 2.16379ZM94.542 1.16379H95.2862V2.16379H94.9974C94.9735 2.19632 94.9505 2.22985 94.9282 2.26438L94.7722 2.16379H94.7619V2.15715L94.0878 1.72237C94.179 1.58095 94.2809 1.44865 94.3934 1.32592L94.542 1.16379ZM96.6494 2.16379H95.6008V1.16379H96.6494V2.16379ZM98.0126 2.16379H96.964V1.16379H98.0126V2.16379ZM99.3758 2.16379H98.3272V1.16379H99.3758V2.16379ZM100.739 2.16379H99.6904V1.16379H100.739V2.16379ZM101.34 2.16379H101.054V1.16379H101.803L101.952 1.3325C102.062 1.45679 102.162 1.58702 102.252 1.72321L101.418 2.27388C101.393 2.23676 101.367 2.20006 101.34 2.16379ZM86.5088 2.48095C86.3024 2.36281 86.1026 2.28022 85.9091 2.22905L86.1649 1.26231C86.4516 1.33814 86.7319 1.45643 87.0055 1.61303L86.5088 2.48095ZM27.0161 2.31617C26.7017 2.42684 26.3969 2.55458 26.1015 2.69938L25.6614 1.80144C25.9923 1.63924 26.3332 1.4964 26.6841 1.3729L27.0161 2.31617ZM51.3662 2.33888C51.0357 2.44749 50.7145 2.57284 50.4023 2.71489L49.9881 1.80468C50.3339 1.64733 50.6892 1.50875 51.0539 1.38888L51.3662 2.33888ZM34.7026 2.73412C34.4058 2.5821 34.0971 2.44812 33.7764 2.33225L34.1162 1.39175C34.4759 1.5217 34.8234 1.67244 35.1585 1.84407L34.7026 2.73412ZM58.5537 2.48343C58.4207 2.43308 58.2898 2.38599 58.1611 2.34215L58.4837 1.3956C58.5596 1.42145 58.6359 1.44827 58.7128 1.47606C58.7699 1.45289 58.829 1.4307 58.89 1.40941L59.2195 2.35359C59.1127 2.39085 59.025 2.42765 58.9543 2.463L58.7585 2.5609L58.5537 2.48343ZM86.9632 2.79153C86.8685 2.71637 86.7748 2.64852 86.6824 2.58771L87.2319 1.75222C87.3481 1.82867 87.4632 1.91207 87.5772 2.00216C87.723 2.10949 87.8656 2.22536 88.005 2.34957L87.3396 3.09605C87.2205 2.98994 87.1001 2.89232 86.9782 2.80299L86.9706 2.7974L86.9632 2.79153ZM61.5366 3.03692C61.4739 2.73042 61.4011 2.44077 61.3184 2.1677L62.2755 1.87791C62.3678 2.18273 62.448 2.50238 62.5163 2.83658L61.5366 3.03692ZM50.1221 2.84808C49.9676 2.92467 49.8155 3.00551 49.6655 3.09063L49.661 3.09314C49.5151 3.17401 49.3723 3.25878 49.2327 3.34744L48.6965 2.50335C48.8524 2.40433 49.0116 2.30976 49.1742 2.21965C49.3396 2.12583 49.5074 2.03668 49.6777 1.95222L50.1221 2.84808ZM25.8368 2.83502C25.6916 2.9127 25.5488 2.99469 25.4082 3.081C25.272 3.16594 25.1388 3.25452 25.0088 3.34673L24.4305 2.53091C24.5772 2.42687 24.7273 2.32705 24.8807 2.23144L24.8835 2.22975C25.0413 2.13278 25.2018 2.04065 25.3649 1.95336L25.8368 2.83502ZM101.759 3.10731C101.711 2.87192 101.633 2.65448 101.525 2.45299L102.405 1.97901C102.562 2.26959 102.673 2.58027 102.739 2.90905L101.759 3.10731ZM2.04278 2.43987C1.99178 2.53816 1.94595 2.64411 1.90568 2.7582C1.864 2.87631 1.83054 2.99335 1.80503 3.10939L0.828359 2.89465C0.862977 2.7372 0.907854 2.58075 0.962692 2.42538C1.01756 2.26991 1.0816 2.12105 1.15519 1.97924L2.04278 2.43987ZM94.8265 2.43987C94.7755 2.53816 94.7297 2.64411 94.6894 2.7582C94.6477 2.87631 94.6143 2.99335 94.5888 3.10939L93.6121 2.89465C93.6467 2.7372 93.6916 2.58075 93.7464 2.42538C93.8013 2.26991 93.8653 2.12105 93.9389 1.97924L94.8265 2.43987ZM68.2439 2.44593C68.1425 2.64343 68.0685 2.86142 68.0237 3.10243L67.0405 2.91968C67.1019 2.58925 67.2059 2.27822 67.3544 1.98915L68.2439 2.44593ZM81.0367 2.44593C80.9353 2.64343 80.8612 2.86142 80.8164 3.10243L79.8333 2.91968C79.8947 2.58925 79.9987 2.27822 80.1471 1.98915L81.0367 2.44593ZM10.2345 2.73287C10.2018 2.62166 10.1624 2.51879 10.1169 2.42366L11.019 1.99208C11.0869 2.13409 11.1438 2.28286 11.1901 2.43782C11.2429 2.58911 11.2863 2.74141 11.32 2.89465L10.3433 3.10939C10.3178 2.99335 10.2844 2.87631 10.2427 2.75819L10.2383 2.74564L10.2345 2.73287ZM75.9937 2.75819C75.9528 2.64246 75.9076 2.53482 75.8584 2.43489L76.7555 1.99308C76.8233 2.13065 76.8836 2.27487 76.9367 2.42538C76.9915 2.58075 77.0364 2.7372 77.071 2.89465L76.0943 3.10939C76.0688 2.99335 76.0354 2.87631 75.9937 2.75819ZM35.4001 3.13859C35.2593 3.04681 35.1157 2.95971 34.9691 2.87726L35.4594 2.0057C35.6245 2.09855 35.7863 2.19667 35.9449 2.30004C36.0984 2.39877 36.2485 2.50152 36.3952 2.60829L35.8066 3.41673C35.6752 3.32112 35.5407 3.229 35.4028 3.14037L35.4001 3.13859ZM88.1708 4.00873C87.9674 3.73979 87.7587 3.50028 87.5451 3.28916L88.2481 2.57795C88.4989 2.82586 88.7389 3.10205 88.9684 3.4055L88.1708 4.00873ZM48.9837 3.51211C48.7101 3.70027 48.449 3.90444 48.2005 4.1247L47.5373 3.3763C47.8164 3.12891 48.1097 2.89951 48.417 2.68816L48.9837 3.51211ZM24.7763 3.51788C24.5216 3.71252 24.2791 3.92212 24.0487 4.14677L23.3506 3.43076C23.6096 3.17825 23.8824 2.94244 24.169 2.7234L24.7763 3.51788ZM36.7724 4.24043C36.5414 4.01036 36.2975 3.79475 36.0406 3.59352L36.6574 2.80636C36.9453 3.03197 37.2189 3.27381 37.478 3.53181L36.7724 4.24043ZM61.6597 3.7505C61.6379 3.59777 61.6139 3.4486 61.5877 3.30296L62.5719 3.1259C62.6002 3.28354 62.6261 3.44432 62.6495 3.6082C62.6744 3.77845 62.6978 3.94871 62.7195 4.11898L61.7276 4.24561C61.7066 4.08115 61.684 3.91667 61.66 3.75218L61.6597 3.7505ZM30.4572 4.14779C30.2983 4.14779 30.1409 4.16409 29.9844 4.19684L29.7796 3.21804C30.0032 3.17125 30.2292 3.14779 30.4572 3.14779C30.6213 3.14779 30.7831 3.15851 30.9424 3.18027L30.807 4.17107C30.6942 4.15565 30.5776 4.14779 30.4572 4.14779ZM1.24219 3.17978C1.48742 3.17978 1.71672 3.19332 1.92855 3.22205L1.79415 4.21297C1.63512 4.1914 1.45165 4.17978 1.24219 4.17978H0.742188V3.67978C0.742188 3.51481 0.753582 3.35008 0.776272 3.18576L1.24219 3.25009V3.17978ZM10.1122 3.2212C10.3567 3.19321 10.6218 3.17978 10.9062 3.17978V3.25009L11.3721 3.18576C11.3948 3.35008 11.4062 3.51481 11.4062 3.67978V4.17978H10.9062C10.6525 4.17978 10.4261 4.19181 10.2258 4.21472L10.1122 3.2212ZM67.4732 3.17978C67.7109 3.17978 67.9332 3.19322 68.1384 3.22189L68 4.21227C67.8493 4.19122 67.6743 4.17978 67.4732 4.17978H66.9732V3.67978C66.9732 3.51844 66.9815 3.36041 66.9984 3.20589L67.4732 3.25794V3.17978ZM75.9805 3.22306C76.1898 3.19362 76.4159 3.17978 76.6572 3.17978V3.25009L77.1231 3.18576C77.1458 3.35008 77.1572 3.51481 77.1572 3.67978V4.17978H76.6572C76.4532 4.17978 76.2745 4.19155 76.1197 4.21332L75.9805 3.22306ZM80.2659 3.17978C80.5285 3.17978 80.777 3.1953 81.0104 3.22771L80.8728 4.2182C80.6917 4.19305 80.4897 4.17978 80.2659 4.17978H79.7659V3.67978C79.7659 3.51844 79.7742 3.36041 79.7912 3.20589L80.2659 3.25794V3.17978ZM94.0259 3.17978C94.2852 3.17978 94.5298 3.19491 94.7587 3.22659L94.6216 4.21715C94.4451 4.19272 94.2469 4.17978 94.0259 4.17978H93.5259V3.67978C93.5259 3.51481 93.5373 3.35008 93.56 3.18576L94.0259 3.25009V3.17978ZM101.591 3.2277C101.817 3.19526 102.059 3.17978 102.314 3.17978V3.25539L102.786 3.19865C102.805 3.35597 102.814 3.51641 102.814 3.67978V4.17978H102.314C102.099 4.17978 101.905 4.19289 101.733 4.2176L101.591 3.2277ZM31.6512 4.45797C31.4475 4.34161 31.2346 4.2587 31.0113 4.20804L31.2325 3.23282C31.5536 3.30566 31.859 3.425 32.1472 3.58963L31.6512 4.45797ZM8.78098 3.64236C9.02078 3.48431 9.30614 3.37579 9.62033 3.30372L9.84394 4.2784C9.60702 4.33275 9.44065 4.4044 9.32754 4.47981L9.31933 4.48528L9.31091 4.49043C9.22036 4.54577 9.15245 4.61577 9.10099 4.70539L8.2338 4.2074C8.36788 3.97393 8.55226 3.78399 8.78098 3.64236ZM3.09551 3.67728C2.88865 3.50251 2.6357 3.38518 2.35988 3.30874L2.0928 4.27241C2.27269 4.32227 2.38464 4.385 2.45279 4.44341L2.46089 4.45036L2.46928 4.45695C2.52677 4.50212 2.58158 4.56959 2.62677 4.67737L3.549 4.29073C3.44808 4.05002 3.29914 3.83977 3.09551 3.67728ZM69.2696 3.68297C69.071 3.50481 68.8254 3.38614 68.5585 3.30928L68.2817 4.27022C68.4505 4.31881 68.5493 4.37881 68.606 4.43119L68.6206 4.44467L68.6363 4.45694C68.6938 4.50212 68.7486 4.56959 68.7938 4.67737L69.716 4.29072C69.6162 4.05281 69.4696 3.84466 69.2696 3.68297ZM74.829 3.68312C75.0337 3.50807 75.2829 3.38921 75.5553 3.31138L75.83 4.27291C75.6579 4.32207 75.5479 4.38399 75.4786 4.44341L75.4762 4.44548C75.4259 4.48799 75.3736 4.55566 75.3299 4.66976L74.3961 4.31181C74.4895 4.06828 74.6303 3.85168 74.829 3.68312ZM95.9543 3.63917C95.7345 3.49501 95.4841 3.38968 95.211 3.31662L94.9526 4.28266C95.146 4.3344 95.2965 4.40243 95.4126 4.47981L95.4257 4.48858L95.4394 4.4965C95.5386 4.55393 95.6106 4.62494 95.664 4.71171L96.5156 4.18739C96.375 3.9591 96.1852 3.77567 95.9543 3.63917ZM82.2164 3.63315C81.9929 3.49402 81.7414 3.39085 81.468 3.31846L81.212 4.28514C81.4091 4.33732 81.5679 4.40627 81.6949 4.48653L81.7077 4.49461L81.721 4.50189C81.8288 4.56118 81.9052 4.6332 81.9608 4.71772L82.7961 4.16789C82.6483 3.9433 82.4517 3.76514 82.2164 3.63315ZM100.413 3.64241C100.63 3.49878 100.877 3.39295 101.145 3.31915L101.41 4.28341C101.224 4.3347 101.076 4.40216 100.959 4.47981L100.951 4.48528L100.943 4.49043C100.852 4.54577 100.784 4.61577 100.733 4.70539L99.8656 4.2074C99.9996 3.97395 100.184 3.78404 100.413 3.64241ZM29.7062 4.27268C29.5574 4.32269 29.4076 4.38837 29.2566 4.47073C29.1021 4.55503 28.9459 4.67212 28.7891 4.82785L28.0843 4.11842C28.2988 3.90533 28.5296 3.72818 28.7778 3.59284C28.9769 3.48424 29.1801 3.39456 29.3874 3.32484L29.7062 4.27268ZM47.9807 4.3268C47.7425 4.55392 47.5162 4.79704 47.3018 5.05634L46.5312 4.41906C46.7702 4.12997 47.0234 3.85793 47.2906 3.60312L47.9807 4.3268ZM23.8455 4.35211C23.6257 4.58211 23.4174 4.82699 23.2206 5.08691L22.4234 4.4832C22.6428 4.19351 22.8758 3.9195 23.1224 3.66134L23.8455 4.35211ZM88.6099 4.64878C88.5216 4.50752 88.4321 4.3723 88.3415 4.24308L89.1601 3.6687C89.261 3.8125 89.3598 3.96189 89.4567 4.1168L89.0339 4.38379L89.4579 4.11879M32.109 4.78949C32.0171 4.70779 31.9237 4.63463 31.829 4.56962L32.3949 3.74514C32.5244 3.83399 32.6494 3.93212 32.7701 4.03915C32.943 4.18787 33.1025 4.36072 33.2495 4.55485L32.4522 5.1585C32.342 5.01291 32.2295 4.89285 32.1158 4.79541L32.109 4.78949ZM54.2398 3.78323C54.4116 3.76488 54.5859 3.75578 54.7627 3.75578C54.9185 3.75578 55.0725 3.76203 55.2245 3.77462L55.142 4.77121C55.0182 4.76096 54.8918 4.75578 54.7627 4.75578C54.6203 4.75578 54.4814 4.76311 54.346 4.77757L54.2398 3.78323ZM37.6027 5.20315C37.4063 4.93789 37.1976 4.68723 36.9765 4.45102L37.7068 3.7678C37.9544 4.03244 38.1876 4.31258 38.4064 4.60808L37.6027 5.20315ZM55.5019 3.80495C55.8153 3.84768 56.1191 3.91838 56.4128 4.01745L56.0933 4.96501C55.8612 4.88675 55.6193 4.83021 55.3668 4.79578L55.5019 3.80495ZM52.9129 4.13503C53.2367 3.99211 53.5748 3.88965 53.9263 3.82754L54.1003 4.81229C53.8269 4.8606 53.566 4.93983 53.3167 5.04987L52.9129 4.13503ZM56.6774 4.11545C56.9663 4.23231 57.2432 4.37727 57.5078 4.54978L56.9617 5.38748C56.75 5.2495 56.5303 5.13468 56.3024 5.04248L56.6774 4.11545ZM52.1754 4.54776C52.3217 4.44719 52.4721 4.35585 52.6266 4.27395L53.095 5.15743C52.9751 5.221 52.8575 5.2924 52.742 5.37181C52.6155 5.45872 52.4926 5.56193 52.3734 5.68273L51.6616 4.9803C51.8224 4.81739 51.9936 4.67278 52.1754 4.54776ZM61.8605 5.53326C61.8345 5.20294 61.8022 4.87259 61.7638 4.5422L62.757 4.42655C62.7969 4.7692 62.8304 5.11189 62.8574 5.45461L61.8605 5.53326ZM28.5378 5.11123C28.4134 5.26864 28.2905 5.45068 28.1696 5.65885C28.0899 5.79603 28.0122 5.94962 27.9369 6.12042L27.0219 5.71692C27.1102 5.51664 27.2044 5.32964 27.3048 5.15672C27.4461 4.9133 27.5953 4.69101 27.7531 4.49133L28.5378 5.11123ZM82.9998 4.59909C83.0707 4.82193 83.1019 5.06149 83.1019 5.31178V5.79383H82.1019V5.31178C82.1019 5.14342 82.0808 5.00886 82.0468 4.90211L82.9998 4.59909ZM96.7045 4.61457C96.7693 4.83265 96.7979 5.06683 96.7979 5.31178V5.81948H95.7979V5.31178C95.7979 5.14347 95.7781 5.00779 95.7459 4.8994L96.7045 4.61457ZM99.6059 5.31178C99.6059 5.07203 99.6322 4.84311 99.6913 4.62978L100.655 4.89671C100.624 5.00677 100.606 5.14355 100.606 5.31178V5.79589H99.6059V5.31178ZM7.97419 5.31178C7.97419 5.07203 8.00042 4.84311 8.05951 4.62978L9.02323 4.89671C8.99274 5.00677 8.97419 5.14355 8.97419 5.31178V5.82358H7.97419V5.31178ZM47.1146 5.29067C46.9142 5.55051 46.7247 5.82571 46.5463 6.11646L45.694 5.59336C45.8904 5.27335 46.1 4.96881 46.3228 4.6799L47.1146 5.29067ZM69.8359 4.68761C69.8753 4.88232 69.8932 5.09134 69.8932 5.31178V5.79383H68.8932V5.31178C68.8932 5.14395 68.8795 5.00299 68.8558 4.88604L69.8359 4.68761ZM3.66892 4.68761C3.70834 4.88232 3.72619 5.09134 3.72619 5.31178V5.79383H2.72619V5.31178C2.72619 5.14395 2.71248 5.00299 2.68881 4.88604L3.66892 4.68761ZM74.2372 5.31178C74.2372 5.09579 74.2532 4.89143 74.2885 4.70121L75.2717 4.88338C75.2497 5.00206 75.2372 5.14403 75.2372 5.31178V5.79384H74.2372V5.31178ZM58.0973 4.99715C57.9805 4.89513 57.8608 4.79908 57.738 4.70911L57.1468 5.51564C57.2467 5.58884 57.3449 5.66761 57.4414 5.75207L57.4469 5.75676C57.5507 5.84502 57.6491 5.93881 57.7421 6.0382L58.4722 5.35491C58.354 5.22861 58.229 5.10934 58.0973 4.99715ZM23.0492 5.3212C22.8659 5.58048 22.6931 5.85398 22.531 6.14189L21.6596 5.65124C21.8379 5.33457 22.0289 5.03207 22.2326 4.74391L23.0492 5.3212ZM89.6171 6.24165L89.0583 5.35796L89.9036 4.82352L90.4623 5.70721L89.6171 6.24165ZM38.2893 6.2809C38.129 5.98742 37.9572 5.70806 37.7739 5.44266L38.5969 4.87451C38.8005 5.16944 38.9905 5.47851 39.1669 5.80157L38.2893 6.2809ZM33.0968 6.41591C32.9532 6.02 32.7964 5.68897 32.6292 5.41814L33.4802 4.89297C33.6907 5.23404 33.8753 5.62955 34.0369 6.07482L33.0968 6.41591ZM50.7266 6.35034C50.9235 5.94405 51.1466 5.58381 51.3986 5.27418L52.1742 5.9054C51.9791 6.14519 51.7957 6.43734 51.6265 6.7864L50.7266 6.35034ZM58.6782 5.59052C58.8935 5.85438 59.0813 6.14353 59.2419 6.4568L58.3522 6.91319C58.222 6.65937 58.0722 6.42963 57.9034 6.22278L58.6782 5.59052ZM61.9113 6.32815C61.9032 6.16249 61.8936 5.99683 61.8824 5.83117L62.8801 5.76372C62.8917 5.93561 62.9017 6.10752 62.9101 6.27942C62.9101 6.27922 62.9101 6.27963 62.9101 6.27942C62.9175 6.42697 62.9242 6.57142 62.9303 6.71277L61.9313 6.75599C61.9252 6.61678 61.9186 6.47376 61.9113 6.32815ZM46.3921 6.37622C46.3094 6.52042 46.2293 6.66825 46.1517 6.81972C46.0774 6.96472 46.0063 7.11308 45.9384 7.26484L45.0257 6.8561C45.1007 6.68872 45.1793 6.52463 45.2617 6.36385C45.3463 6.19862 45.434 6.03691 45.5247 5.87874L46.3921 6.37622ZM22.3912 6.39874C22.3163 6.54118 22.2438 6.68698 22.1738 6.83615L22.1728 6.83831C22.1063 6.97834 22.0426 7.12118 21.9817 7.26684L21.0591 6.881C21.1259 6.72132 21.1959 6.56436 21.2691 6.41013C21.3452 6.24796 21.4242 6.089 21.5061 5.93327L22.3912 6.39874ZM21.2691 6.41013C21.269 6.41042 21.2693 6.40984 21.2691 6.41013L21.7212 6.62379L21.2685 6.41142C21.2687 6.41099 21.2689 6.41056 21.2691 6.41013ZM90.3435 7.39045L89.7847 6.50676L90.63 5.97232L91.1887 6.85601L90.3435 7.39045ZM27.816 6.41512C27.6997 6.71898 27.5916 7.06449 27.4924 7.45299L26.5235 7.20557C26.6304 6.78684 26.7496 6.40383 26.8819 6.05789L27.816 6.41512ZM3.72619 6.08306V7.04717H2.72619V6.08306H3.72619ZM69.8932 6.08306V7.04717H68.8932V6.08306H69.8932ZM83.1019 6.08306V7.04717H82.1019V6.08306H83.1019ZM74.2372 7.04717V6.08307H75.2372V7.04717H74.2372ZM99.6059 7.05455V6.08635H100.606V7.05455H99.6059ZM38.6414 6.98943C38.5728 6.83732 38.5015 6.68855 38.4275 6.54308L39.3188 6.08969C39.3994 6.24821 39.477 6.40991 39.5514 6.57475C39.6217 6.72461 39.6889 6.87653 39.7533 7.0305L38.8306 7.41605C38.7712 7.274 38.7092 7.13403 38.6445 6.99615L38.6414 6.98943ZM96.7979 6.12409V7.13948H95.7979V6.12409H96.7979ZM7.97419 7.15425V6.13066H8.97419V7.15425H7.97419ZM33.3651 7.29272C33.3148 7.09805 33.262 6.91362 33.2066 6.73932L34.1597 6.43663C34.221 6.62958 34.2788 6.83144 34.3331 7.04208C34.379 7.21692 34.4216 7.40011 34.4611 7.59145L33.4817 7.79361C33.4454 7.61752 33.4066 7.45125 33.3656 7.29464L33.3651 7.29272ZM50.3541 7.26053C50.4228 7.0615 50.4958 6.87086 50.5731 6.68877L51.4936 7.07957C51.4263 7.23818 51.3617 7.4064 51.3002 7.58442C51.256 7.7173 51.2141 7.85827 51.1747 8.00749L50.2078 7.75229C50.2524 7.58328 50.3006 7.42102 50.3523 7.26567L50.3541 7.26053ZM59.3743 6.73406C59.507 7.03324 59.617 7.35171 59.705 7.6886L58.7375 7.94134C58.662 7.65236 58.5693 7.38539 58.4602 7.13956L59.3743 6.73406ZM61.9674 7.86446C61.9619 7.59617 61.9534 7.31205 61.9418 7.01207L62.941 6.97334C62.9529 7.27876 62.9616 7.56904 62.9672 7.84412L61.9674 7.86446ZM91.0699 8.53925L90.5111 7.65556L91.3564 7.12112L91.9151 8.00481L91.0699 8.53925ZM85.6539 7.13203L86.8365 8.92707L86.6539 9.04738V9.29346H86.2804L86.0015 9.47723L85.8804 9.29346H85.6539V7.13203ZM45.8211 7.53756C45.6978 7.83662 45.5862 8.14828 45.4863 8.4727L44.5306 8.17852C44.6391 7.8259 44.7611 7.48514 44.8966 7.15639L45.8211 7.53756ZM21.8764 7.52859C21.7653 7.81591 21.6647 8.11382 21.5746 8.42243L20.6147 8.1422C20.7124 7.80749 20.822 7.48275 20.9436 7.16808L21.8764 7.52859ZM39.2326 8.54359C39.1432 8.24493 39.0436 7.95442 38.9338 7.67198L39.8658 7.3097C39.9855 7.61759 40.0937 7.93333 40.1906 8.25686L39.2326 8.54359ZM3.72619 7.3364V8.3005H2.72619V7.3364H3.72619ZM69.8932 7.3364V8.3005H68.8932V7.3364H69.8932ZM83.1019 7.3364V8.3005H82.1019V7.3364H83.1019ZM74.2372 8.3005V7.3364H75.2372V8.3005H74.2372ZM99.6059 8.31322V7.34502H100.606V8.31322H99.6059ZM96.7979 7.44409V8.45948H95.7979V7.44409H96.7979ZM7.97419 8.48491V7.46132H8.97419V8.48491H7.97419ZM27.3009 8.31433C27.3371 8.12726 27.3749 7.94752 27.4145 7.77505L26.4398 7.55162C26.3972 7.7374 26.3567 7.92989 26.3182 8.12904L26.3167 8.13739C26.2903 8.2879 26.2656 8.44329 26.2425 8.60352L27.2322 8.74626C27.2537 8.59691 27.2767 8.45294 27.3009 8.31433ZM33.6894 9.13284C33.6472 8.76049 33.5975 8.41575 33.5404 8.09825L34.5247 7.9214C34.5861 8.26305 34.6388 8.62948 34.683 9.02032L33.6894 9.13284ZM59.3707 8.06788L58.7975 8.19268C58.8275 8.33046 58.8539 8.47282 58.8765 8.61981L58.9417 9.04379H59.9676V8.04379H59.7883C59.7838 8.02243 59.7793 8.00114 59.7746 7.97992L59.4813 8.04379H59.3707V8.06788ZM60.3258 8.04379H61.5196V9.04379H60.3258V8.04379ZM61.8778 8.04379H62.4747V8.11279L62.9716 8.1061C62.9737 8.25684 62.9747 8.40274 62.9747 8.54379V9.04379H61.8778V8.04379ZM49.955 9.02034C50.0055 8.6744 50.0656 8.34902 50.1357 8.04464L51.1102 8.26909C51.0469 8.54369 50.9916 8.84208 50.9445 9.16469L49.955 9.02034ZM91.7963 9.68805L91.2375 8.80436L92.0828 8.26992L92.6415 9.15361L91.7963 9.68805ZM21.4983 8.696C21.4186 8.99496 21.3484 9.30358 21.2879 9.62195L20.3055 9.43517C20.3704 9.09403 20.4458 8.76177 20.532 8.43848L21.4983 8.696ZM45.402 8.75969C45.3143 9.0728 45.2371 9.39728 45.1706 9.73324L44.1896 9.539C44.2609 9.17884 44.344 8.82911 44.4391 8.48993L45.402 8.75969ZM39.5215 9.71093C39.4602 9.40296 39.3894 9.10269 39.309 8.81005L40.2733 8.5452C40.3602 8.86157 40.4365 9.18511 40.5023 9.51578L39.5215 9.71093ZM3.72619 8.58973V9.55383H2.72619V8.58973H3.72619ZM69.8932 8.58973V9.55383H68.8932V8.58973H69.8932ZM83.1019 8.58973V9.55383H82.1019V8.58973H83.1019ZM74.2372 9.55384V8.58973H75.2372V9.55384H74.2372ZM99.6059 9.57189V8.60368H100.606V9.57189H99.6059ZM96.7979 8.76409V9.77948H95.7979V8.76409H96.7979ZM7.97419 9.81558V8.79199H8.97419V9.81558H7.97419ZM27.1963 9.01027C27.1606 9.2891 27.1293 9.58488 27.1027 9.89772L26.1063 9.81297C26.134 9.48747 26.1667 9.17748 26.2044 8.88314L27.1963 9.01027ZM86.9956 9.16849L87.5258 9.97323L86.6907 10.5234L86.6539 10.4675V10.577H85.6539V9.58967H86.3563L86.9956 9.16849ZM49.8193 10.2859C49.8443 9.94578 49.8763 9.62137 49.9152 9.31285L50.9074 9.43818C50.8708 9.72774 50.8405 10.0347 50.8166 10.3593L49.8193 10.2859ZM33.803 10.5015C33.7819 10.1302 33.755 9.77873 33.7225 9.447L34.7177 9.34948C34.7517 9.6961 34.7796 10.0612 34.8014 10.4446L33.803 10.5015ZM92.5227 10.8369L91.9639 9.95316L92.8092 9.41872L93.3679 10.3024L92.5227 10.8369ZM21.2374 9.90329C21.1854 10.21 21.1421 10.5254 21.1075 10.8495L20.1132 10.7434C20.1498 10.3997 20.1959 10.064 20.2514 9.73625L21.2374 9.90329ZM39.7066 10.9046C39.6709 10.5908 39.6264 10.284 39.573 9.98438L40.5576 9.80908C40.6147 10.1302 40.6622 10.4577 40.7002 10.7918L39.7066 10.9046ZM3.72619 9.84307V10.8072H2.72619V9.84307H3.72619ZM69.8932 9.84307V10.8072H68.8932V9.84307H69.8932ZM83.1019 9.84307V10.8072H82.1019V9.84307H83.1019ZM74.2372 10.8072V9.84307H75.2372V10.8072H74.2372ZM45.1152 10.0296C45.0585 10.3518 45.0112 10.6842 44.9735 11.0267L43.9795 10.9173C44.0194 10.5544 44.0697 10.2007 44.1303 9.85624L45.1152 10.0296ZM99.6059 10.8306V9.86235H100.606V10.8306H99.6059ZM96.7979 10.0841V11.0995H95.7979V10.0841H96.7979ZM27.0814 10.1657C27.0601 10.4517 27.0424 10.7508 27.0285 11.0632L26.0295 11.0186C26.0438 10.6972 26.062 10.3881 26.0841 10.0915L27.0814 10.1657ZM7.97419 11.1462V10.1227H8.97419V11.1462H7.97419ZM87.6848 10.2146L88.215 11.0194L87.38 11.5695L86.8498 10.7648L87.6848 10.2146ZM93.2491 11.9857L92.6903 11.102L93.5356 10.5675L94.0943 11.4512L93.2491 11.9857ZM49.7596 11.5465C49.7676 11.2107 49.781 10.8875 49.7998 10.5771L50.798 10.6375C50.78 10.9348 50.7671 11.2457 50.7593 11.5703L49.7596 11.5465ZM33.8536 11.8826C33.8468 11.5128 33.8354 11.1583 33.8195 10.8193L34.8184 10.7725C34.8348 11.1218 34.8464 11.4857 34.8534 11.8642L33.8536 11.8826ZM85.6539 11.8606V10.8732H86.6539V11.8606H85.6539ZM21.0794 11.1357C21.0515 11.4471 21.0315 11.7664 21.0193 12.0935L20.02 12.0562C20.0328 11.7125 20.0539 11.3759 20.0834 11.0465L21.0794 11.1357ZM39.7984 12.1145C39.7856 11.7974 39.7647 11.4869 39.7356 11.1828L40.7311 11.0876C40.762 11.4106 40.7841 11.7396 40.7976 12.0744L39.7984 12.1145ZM3.72619 11.0964V12.0605H2.72619V11.0964H3.72619ZM69.8932 11.0964V12.0605H68.8932V11.0964H69.8932ZM83.1019 11.0964V12.0605H82.1019V11.0964H83.1019ZM74.2372 12.0605V11.0964H75.2372V12.0605H74.2372ZM99.6059 12.0892V11.121H100.606V12.0892H99.6059ZM44.943 11.3284C44.9128 11.6563 44.8911 11.9931 44.8779 12.3389L43.8786 12.3008C43.8924 11.9379 43.9153 11.5832 43.9472 11.2366L44.943 11.3284ZM88.3741 11.2608L88.9042 12.0655L88.0692 12.6157L87.539 11.811L88.3741 11.2608ZM27.0175 11.3333C27.0067 11.6234 26.9991 11.9243 26.9944 12.236L25.9945 12.2211C25.9993 11.9026 26.0071 11.5943 26.0182 11.2963L27.0175 11.3333ZM96.7979 11.4041V12.4195H95.7979V11.4041H96.7979ZM7.97419 12.4769V11.4533H8.97419V12.4769H7.97419ZM93.9755 13.1344L93.4167 12.2508L94.262 11.7163L94.8207 12.6L93.9755 13.1344ZM49.7507 12.3198C49.7507 12.1559 49.7518 11.9948 49.7541 11.8364L50.754 11.8508C50.7518 12.0042 50.7507 12.1606 50.7507 12.3198C50.7507 12.4943 50.7518 12.666 50.754 12.8346L49.754 12.8476C49.7518 12.6744 49.7507 12.4985 49.7507 12.3198ZM85.6539 13.1441V12.1568H86.6539V13.1441H85.6539ZM33.8612 12.7358C33.8612 12.5546 33.8602 12.3767 33.8583 12.202L34.8582 12.1909C34.8602 12.3694 34.8612 12.551 34.8612 12.7358C34.8612 12.8932 34.8604 13.0484 34.8589 13.2014L33.8589 13.1914C33.8604 13.0418 33.8612 12.89 33.8612 12.7358ZM89.0633 12.307L89.5935 13.1117L88.7584 13.6618L88.2282 12.8571L89.0633 12.307ZM55.1365 12.3318H55.9024V13.3318H55.6292C55.6041 13.3739 55.5787 13.4201 55.5533 13.4708L54.6592 13.0229C54.7544 12.8329 54.8625 12.6605 54.9866 12.5117L55.1365 12.3318ZM57.2848 13.3318H56.2214V12.3318H57.2848V13.3318ZM58.6672 13.3318H57.6038V12.3318H58.6672V13.3318ZM60.0496 13.3318H58.9862V12.3318H60.0496V13.3318ZM61.432 13.3318H60.3686V12.3318H61.432V13.3318ZM62.2827 13.3318H61.751V12.3318H62.2827C62.5234 12.3318 62.7519 12.3506 62.9663 12.391L62.7811 13.3737C62.6376 13.3467 62.4721 13.3318 62.2827 13.3318ZM3.72619 12.3497V13.3138H2.72619V12.3497H3.72619ZM69.8932 12.3497V13.3138H68.8932V12.3497H69.8932ZM83.1019 12.3497V13.3138H82.1019V12.3497H83.1019ZM74.2372 13.3138V12.3497H75.2372V13.3138H74.2372ZM21.0106 12.3821C21.007 12.5408 21.0052 12.7014 21.0052 12.8638C21.0052 13.0212 21.0071 13.1772 21.0109 13.3318L20.0111 13.3562C20.0072 13.1933 20.0052 13.0292 20.0052 12.8638C20.0052 12.694 20.0071 12.5258 20.0109 12.3592L21.0106 12.3821ZM39.8132 12.8638C39.8132 12.7061 39.8113 12.5499 39.8075 12.3952L40.8072 12.3705C40.8112 12.5336 40.8132 12.698 40.8132 12.8638C40.8132 13.0339 40.8112 13.2025 40.8072 13.3695L39.8075 13.3456C39.8113 13.1867 39.8132 13.0261 39.8132 12.8638ZM99.6059 13.3479V12.3797H100.606V13.3479H99.6059ZM26.9912 12.5071C26.9899 12.6556 26.9892 12.8065 26.9892 12.9598C26.9892 13.1419 26.9902 13.3209 26.9921 13.4966L25.9922 13.5078C25.9902 13.3282 25.9892 13.1455 25.9892 12.9598C25.9892 12.8036 25.9899 12.6497 25.9912 12.4981L26.9912 12.5071ZM63.3815 13.6453C63.2969 13.5663 63.1874 13.4979 63.0438 13.4449L63.3903 12.5068C63.6408 12.5993 63.8659 12.7314 64.0569 12.9078C64.191 13.0247 64.3115 13.1497 64.4163 13.2834L63.6293 13.9004C63.5662 13.8199 63.4889 13.7388 63.3952 13.6576L63.3883 13.6516L63.3815 13.6453ZM44.8685 12.6434C44.8646 12.8109 44.8627 12.9803 44.8627 13.1518C44.8627 13.3038 44.8649 13.4545 44.8693 13.6039L43.8698 13.6334C43.865 13.4741 43.8627 13.3135 43.8627 13.1518C43.8627 12.9727 43.8647 12.7955 43.8688 12.6201L44.8685 12.6434ZM96.7979 12.7241V13.7395H95.7979V12.7241H96.7979ZM7.97419 13.8076V12.784H8.97419V13.8076H7.97419ZM94.7019 14.2833L94.1432 13.3996L94.9884 12.8651L95.5471 13.7488L94.7019 14.2833ZM49.7986 14.2217C49.7803 13.8821 49.7673 13.5295 49.7595 13.164L50.7592 13.1427C50.7668 13.4982 50.7795 13.8399 50.7971 14.168L49.7986 14.2217ZM55.45 13.7024C55.4003 13.8269 55.3524 13.9671 55.3067 14.1238C55.2588 14.2881 55.2197 14.442 55.189 14.5858L54.211 14.377C54.2474 14.2064 54.2928 14.0286 54.3467 13.8438C54.4 13.6611 54.458 13.4901 54.5213 13.3316L55.45 13.7024ZM89.7525 13.3531L90.2827 14.1578L89.4476 14.708L88.9175 13.9033L89.7525 13.3531ZM85.6539 14.4277V13.4403H86.6539V14.4277H85.6539ZM33.8297 14.3724C33.8417 14.0803 33.8502 13.7776 33.8554 13.4642L34.8552 13.4806C34.8499 13.8016 34.8412 14.1124 34.8289 14.4132L33.8297 14.3724ZM63.8456 14.3291C63.8224 14.2363 63.786 14.1455 63.7346 14.0559L64.6021 13.5585C64.6952 13.7209 64.7657 13.8922 64.812 14.0717C64.8452 14.1787 64.8742 14.2799 64.8985 14.3749L63.9296 14.6226C63.9094 14.5437 63.8842 14.4552 63.8534 14.3569L63.8491 14.3431L63.8456 14.3291ZM3.72619 13.6031V14.5672H2.72619V13.6031H3.72619ZM69.8932 13.6031V14.5672H68.8932V13.6031H69.8932ZM83.1019 13.6031V14.5672H82.1019V13.6031H83.1019ZM74.2372 14.5672V13.6031H75.2372V14.5672H74.2372ZM21.0198 13.6121C21.0324 13.9285 21.053 14.2388 21.0816 14.5429L20.086 14.6367C20.0556 14.3139 20.0339 13.9856 20.0206 13.6517L21.0198 13.6121ZM39.7358 14.5921C39.7649 14.2803 39.7858 13.961 39.7985 13.6342L40.7977 13.6731C40.7843 14.0171 40.7623 14.3544 40.7315 14.6849L39.7358 14.5921ZM99.6059 14.6066V13.6384H100.606V14.6066H99.6059ZM26.9969 13.8178C27.0038 14.1895 27.0152 14.5459 27.0313 14.8872L26.0324 14.9341C26.0159 14.5826 26.0041 14.2167 25.9971 13.8363L26.9969 13.8178ZM44.8798 13.8745C44.8945 14.1795 44.9185 14.4788 44.9518 14.7725L43.9582 14.8853C43.9223 14.5694 43.8966 14.2485 43.881 13.9225L44.8798 13.8745ZM95.4283 15.4321L94.8695 14.5484L95.7148 14.0139L95.7979 14.1455V14.0441H96.7979V15.0595H96.0175L95.4283 15.4321ZM7.97419 15.1382V14.1147H8.97419V15.1382H7.97419ZM90.4418 14.3993L90.9719 15.204L90.1369 15.7542L89.6067 14.9494L90.4418 14.3993ZM49.9092 15.5995C49.872 15.2619 49.8414 14.9084 49.8174 14.5392L50.8153 14.4743C50.8385 14.83 50.8678 15.1685 50.9032 15.49L49.9092 15.5995ZM63.9907 14.9758C63.9907 14.94 63.9849 14.8754 63.9646 14.7742L64.945 14.5773C64.9725 14.7144 64.9907 14.8498 64.9907 14.9758C64.9907 15.0874 64.9802 15.1981 64.9581 15.3069L64.3307 15.1794V15.3072L64.9036 15.5061C64.8658 15.6151 64.8159 15.7189 64.7547 15.8168L64.6078 16.0518H64.3307C64.2095 16.0518 64.0901 16.0546 63.9724 16.0603L63.9358 15.305L63.9067 15.2868C63.9163 15.2715 63.9249 15.256 63.9327 15.2404L63.9241 15.0615C63.9446 15.0605 63.9653 15.0596 63.9859 15.0588C63.989 15.0328 63.9907 15.0052 63.9907 14.9758ZM33.759 15.5467C33.7826 15.2588 33.8021 14.958 33.8175 14.6442L34.8163 14.6933C34.8004 15.017 34.7802 15.3287 34.7557 15.6282L33.759 15.5467ZM55.1388 14.859C55.114 15.0232 55.1027 15.1684 55.1027 15.2958H55.0439L55.0224 15.8043C54.889 15.7986 54.7491 15.7958 54.6027 15.7958H54.1027V15.2958C54.1027 15.1101 54.1192 14.9144 54.15 14.7098L54.7237 14.7964C54.8403 14.7976 54.954 14.8005 55.0646 14.8052L55.0628 14.8476L55.1388 14.859ZM85.6539 15.7112V14.7239H86.6539V15.7112H85.6539ZM21.1102 14.8209C21.1452 15.1342 21.1889 15.4408 21.2412 15.7409L20.256 15.9127C20.2001 15.5918 20.1536 15.2648 20.1164 14.9318L21.1102 14.8209ZM55.3441 14.8212C55.6902 14.8465 56.0074 14.8914 56.2932 14.9581L56.0658 15.9319C55.8415 15.8796 55.5774 15.841 55.271 15.8185L55.3441 14.8212ZM3.72619 14.8564V15.8205H2.72619V14.8564H3.72619ZM69.8932 14.8564V15.8205H68.8932V14.8564H69.8932ZM83.1019 14.8564V15.8205H82.1019V14.8564H83.1019ZM74.2372 15.8205V14.8564H75.2372V15.8205H74.2372ZM39.572 15.8241C39.6258 15.5171 39.6707 15.2018 39.7066 14.8782L40.7005 14.9884C40.6624 15.3321 40.6146 15.6683 40.5569 15.9969L39.572 15.8241ZM99.6059 15.8652V14.897H100.606V15.8652H99.6059ZM13.7662 14.9238H14.697V15.4238H14.7662C14.7662 15.626 14.762 15.8242 14.7536 16.0184L13.7545 15.975C13.7623 15.7959 13.7662 15.6121 13.7662 15.4238V14.9238ZM15.817 15.9238H14.9554V14.9238H15.817V15.9238ZM16.3229 15.9238H16.0754V14.9238H16.6624L16.7908 15.0127C16.9777 15.1421 17.1336 15.3127 17.2638 15.5087L16.431 16.0623C16.3938 16.0062 16.3575 15.9607 16.3229 15.9238ZM57.0663 15.2325C56.9177 15.1557 56.7563 15.0911 56.5842 15.0372L56.2853 15.9914C56.413 16.0315 56.521 16.0759 56.6114 16.1231L56.6191 16.1271L56.627 16.1309C56.7607 16.1948 56.8524 16.2673 56.9159 16.3418L57.677 15.6931C57.511 15.4983 57.303 15.3468 57.0663 15.2325ZM44.985 15.0402C45.0254 15.3409 45.0758 15.6357 45.1362 15.9246L44.1573 16.1291C44.0919 15.816 44.0375 15.4974 43.9939 15.1734L44.985 15.0402ZM63.2875 15.1182C63.4168 15.1012 63.5476 15.0875 63.6797 15.0771L63.7586 16.074C63.6388 16.0834 63.5209 16.0959 63.4048 16.1114L63.3896 16.1134L63.3743 16.1145C63.2831 16.121 63.1975 16.1322 63.1172 16.1475L62.9295 15.1653C63.0459 15.1431 63.1653 15.1275 63.2875 15.1182ZM95.5959 15.6972L95.7979 15.5694V15.3641H96.1227L96.4412 15.1627L96.5685 15.3641H96.7979V17.5981L95.5959 15.6972ZM27.0479 15.2068C27.0691 15.5798 27.0962 15.9333 27.1288 16.2674L26.1336 16.3648C26.0995 16.0159 26.0714 15.6488 26.0495 15.2637L27.0479 15.2068ZM62.3318 15.3526C62.451 15.2984 62.5751 15.2537 62.7037 15.218L62.8675 15.8078H63.0387V16.2796H62.0387V15.4858L62.3318 15.3526ZM7.97419 16.4689V15.4453H8.97419V16.4689H7.97419ZM91.131 15.4454L91.6612 16.2501L90.8261 16.8003L90.2959 15.9956L91.131 15.4454ZM50.1155 16.9799C50.0504 16.6462 49.9943 16.2921 49.9469 15.9179L50.939 15.7923C50.9839 16.147 51.0366 16.479 51.097 16.7883L50.1155 16.9799ZM33.6327 16.7079C33.6719 16.427 33.7062 16.1299 33.7355 15.8162L34.7311 15.909C34.7006 16.2364 34.6646 16.5488 34.6231 16.8461L33.6327 16.7079ZM16.702 16.6642C16.6525 16.5096 16.5999 16.3771 16.5455 16.265L17.4449 15.828C17.5233 15.9893 17.5924 16.1661 17.6535 16.3566C17.7262 16.575 17.7913 16.8015 17.8489 17.0359L16.8778 17.2746C16.826 17.0638 16.768 16.8623 16.7038 16.6699L16.702 16.6642ZM85.6539 16.9948V16.0074H86.6539V16.9948H85.6539ZM21.2916 16.0144C21.3515 16.3221 21.4207 16.6227 21.4992 16.9163L20.5331 17.1746C20.4485 16.8582 20.3742 16.5351 20.31 16.2054L21.2916 16.0144ZM39.303 17.0305C39.385 16.7312 39.4573 16.4228 39.5197 16.1053L40.5009 16.2981C40.434 16.6388 40.3562 16.9711 40.2674 17.2949L39.303 17.0305ZM3.72619 16.1097V17.0738H2.72619V16.1097H3.72619ZM69.8932 16.1097V17.0738H68.8932V16.1097H69.8932ZM83.1019 16.1097V17.0738H82.1019V16.1097H83.1019ZM74.2372 17.0738V16.1097H75.2372V17.0738H74.2372ZM57.9357 16.1124C58.0349 16.3469 58.0787 16.6004 58.0787 16.8638V17.3315H57.0787V16.8638C57.0787 16.7112 57.0535 16.5937 57.0148 16.5022L57.9357 16.1124ZM99.6059 17.1239V16.1557H100.606V17.1239H99.6059ZM45.1941 16.1869C45.2624 16.4805 45.3412 16.7678 45.4305 17.049L44.4774 17.3516C44.38 17.0449 44.2943 16.7322 44.2201 16.4136L45.1941 16.1869ZM14.7329 16.3759C14.7027 16.7928 14.6517 17.1907 14.5794 17.5692L13.5972 17.3816C13.6615 17.0448 13.7078 16.6856 13.7355 16.3036L14.7329 16.3759ZM91.8202 16.4916L92.3504 17.2963L91.5153 17.8465L90.9852 17.0417L91.8202 16.4916ZM62.0387 17.5062V16.5627H63.0387V17.5062H62.0387ZM27.1621 16.5835C27.2043 16.9574 27.2541 17.3044 27.3112 17.6248L26.3267 17.8002C26.2654 17.4561 26.2127 17.0878 26.1684 16.6957L27.1621 16.5835ZM7.97419 17.7996V16.776H8.97419V17.7996H7.97419ZM33.5179 17.4106C33.5446 17.2699 33.5698 17.124 33.5935 16.9729L34.5814 17.1277C34.5564 17.2875 34.5296 17.4428 34.5011 17.5935C34.4662 17.7919 34.4291 17.9836 34.3896 18.1688L33.4116 17.9601C33.4486 17.7866 33.4837 17.6057 33.5167 17.4174L33.5179 17.4106ZM50.3125 17.828C50.2659 17.6579 50.2223 17.4813 50.1817 17.2982L51.1581 17.082C51.1949 17.2483 51.2341 17.4073 51.2756 17.5589C51.3142 17.6895 51.3544 17.8158 51.3961 17.9379L50.4498 18.2611C50.4028 18.1237 50.358 17.9824 50.3151 17.8373L50.3125 17.828ZM21.5737 17.1833C21.6607 17.4824 21.7576 17.7739 21.8643 18.0581L20.9282 18.4097C20.8123 18.1013 20.7074 17.7855 20.6135 17.4626L21.5737 17.1833ZM85.6539 18.2784V17.291H86.6539V18.2784H85.6539ZM45.5147 17.3033C45.6122 17.5863 45.7206 17.863 45.8399 18.1335L44.9249 18.5369C44.7942 18.2407 44.6757 17.9381 44.5692 17.6291L45.5147 17.3033ZM38.916 18.1968C39.0295 17.909 39.1324 17.6114 39.2246 17.3038L40.1825 17.591C40.0825 17.9246 39.9704 18.2488 39.8463 18.5636L38.916 18.1968ZM3.72619 17.3631V18.3272H2.72619V17.3631H3.72619ZM69.8932 17.3631V18.3272H68.8932V17.3631H69.8932ZM83.1019 17.3631V18.3272H82.1019V17.3631H83.1019ZM74.2372 18.3272V17.3631H75.2372V18.3272H74.2372ZM99.6059 18.3826V17.4144H100.606V18.3826H99.6059ZM17.0669 18.2761C17.0368 18.0584 17.0014 17.8484 16.9607 17.6461L17.941 17.4487C17.986 17.6723 18.0248 17.9025 18.0575 18.1395C18.0893 18.3699 18.1154 18.5938 18.1358 18.8113L17.1402 18.9048C17.1212 18.7027 17.0968 18.4932 17.0669 18.2761ZM92.5095 17.5377L93.0396 18.3425L92.2046 18.8926L91.6744 18.0879L92.5095 17.5377ZM58.0787 17.6121V18.5475H57.0787V17.6121H58.0787ZM14.5036 17.9258C14.4062 18.3405 14.2811 18.7307 14.1271 19.0953L13.2059 18.7062C13.3359 18.3983 13.4444 18.0623 13.5301 17.6972L14.5036 17.9258ZM62.0387 18.7329V17.7893H63.0387V18.7329H62.0387ZM27.3697 17.9317C27.4059 18.1088 27.4445 18.2765 27.4853 18.4348C27.5356 18.6295 27.5884 18.8139 27.6438 18.9883L26.6907 19.2909C26.6293 19.0978 26.5715 18.8956 26.517 18.6847C26.4716 18.5084 26.4292 18.324 26.3899 18.1317L27.3697 17.9317ZM7.97419 19.1303V18.1067H8.97419V19.1303H7.97419ZM50.903 19.3422C50.7711 19.0851 50.6502 18.8087 50.54 18.5137L51.4768 18.1637C51.5749 18.4263 51.6803 18.6667 51.7927 18.8856L50.903 19.3422ZM33.0285 19.3169C33.1417 19.0141 33.2454 18.6695 33.3387 18.2817L34.311 18.5157C34.2099 18.9355 34.095 19.3197 33.9653 19.667L33.0285 19.3169ZM22.1446 18.7373C22.082 18.5986 22.0219 18.4579 21.9645 18.3154L21.037 18.6893C21.0996 18.8446 21.1651 18.998 21.2334 19.1494L21.2344 19.1515C21.3093 19.3156 21.3873 19.4766 21.4684 19.6344L22.358 19.1776C22.2842 19.0341 22.2131 18.8873 22.1446 18.7373ZM45.9508 18.3767C46.0142 18.5111 46.0804 18.644 46.1494 18.7754C46.2296 18.9281 46.3128 19.0776 46.3991 19.2238L45.5379 19.7321C45.4431 19.5714 45.3518 19.4074 45.264 19.2402C45.1884 19.0962 45.1159 18.9506 45.0464 18.8033L45.9508 18.3767ZM38.6147 18.8869C38.6822 18.7466 38.7469 18.6038 38.8088 18.4584L39.7289 18.8501C39.6612 19.0091 39.5903 19.1656 39.5162 19.3196C39.4393 19.4815 39.3594 19.6401 39.2764 19.7955L38.3942 19.3246C38.4699 19.1828 38.543 19.0377 38.6136 18.8893L38.6147 18.8869ZM85.6539 19.5619V18.5746H86.6539V19.5619H85.6539ZM93.1987 18.5839L93.7289 19.3886L92.8938 19.9388L92.3636 19.134L93.1987 18.5839ZM3.72619 18.6164V19.5805H2.72619V18.6164H3.72619ZM69.8932 18.6164V19.5805H68.8932V18.6164H69.8932ZM83.1019 18.6164V19.5805H82.1019V18.6164H83.1019ZM74.2372 19.5805V18.6164H75.2372V19.5805H74.2372ZM99.6059 19.6412V18.673H100.606V19.6412H99.6059ZM58.0787 18.8281V19.7635H57.0787V18.8281H58.0787ZM13.9715 19.4351C13.8776 19.6247 13.7752 19.8065 13.664 19.9803C13.5769 20.1179 13.4848 20.2486 13.3877 20.372L12.6019 19.7535C12.677 19.6581 12.7496 19.5552 12.8196 19.4445L12.8211 19.4423C12.9121 19.2999 12.9969 19.1497 13.0754 18.9913L13.9715 19.4351ZM62.0387 19.4878V19.016H63.0387V19.4878C63.0387 19.6218 63.0414 19.7416 63.0467 19.8476L62.0479 19.8972C62.0417 19.7717 62.0387 19.635 62.0387 19.4878ZM51.5639 20.3552C51.3711 20.1246 51.1948 19.8672 51.0341 19.5847L51.9033 19.0902C52.0378 19.3266 52.1807 19.5339 52.3311 19.7137L51.5639 20.3552ZM17.1902 19.9038C17.1902 19.7059 17.1835 19.4983 17.1698 19.2809L18.1678 19.2183C18.1827 19.4548 18.1902 19.6833 18.1902 19.9038C18.1902 20.1204 18.184 20.3306 18.1716 20.5341L17.1735 20.4733C17.1846 20.2914 17.1902 20.1016 17.1902 19.9038ZM27.7535 19.3117C27.8972 19.7076 28.054 20.0386 28.2211 20.3094L27.3701 20.8346C27.1597 20.4935 26.9751 20.098 26.8135 19.6527L27.7535 19.3117ZM22.4959 19.437C22.6557 19.7274 22.8267 20.004 23.0088 20.267L22.1866 20.8362C21.9845 20.5443 21.7956 20.2386 21.6199 19.9193L22.4959 19.437ZM7.97419 20.4609V19.4373H8.97419V20.4609H7.97419ZM46.5595 19.4862C46.7439 19.7777 46.9411 20.0556 47.1511 20.3201L46.3679 20.9419C46.1353 20.649 45.9175 20.3419 45.7144 20.0208L46.5595 19.4862ZM37.729 20.3951C37.9148 20.1374 38.0895 19.8657 38.253 19.58L39.1209 20.0768C38.9405 20.3919 38.747 20.693 38.5402 20.9799L37.729 20.3951ZM32.6808 20.0687C32.7599 19.9326 32.8365 19.78 32.9103 19.6103L33.8274 20.0091C33.7401 20.2098 33.6463 20.3974 33.5456 20.5709C33.4042 20.8143 33.255 21.0366 33.0973 21.2362L32.3126 20.6163C32.437 20.4589 32.5599 20.2769 32.6808 20.0687ZM93.8879 19.63L94.4181 20.4348L93.583 20.9849L93.0529 20.1802L93.8879 19.63ZM85.6539 20.3518V19.8581H86.6539V20.3518C86.6539 20.5218 86.6742 20.6608 86.7077 20.7737L85.7489 21.0581C85.6833 20.8367 85.6539 20.5996 85.6539 20.3518ZM3.72619 19.8697V20.3518C3.72619 20.5722 3.70834 20.7812 3.66892 20.976L2.68881 20.7775C2.71248 20.6606 2.72619 20.5196 2.72619 20.3518V19.8697H3.72619ZM69.8932 19.8697V20.3518C69.8932 20.5722 69.8753 20.7812 69.8359 20.976L68.8558 20.7775C68.8795 20.6606 68.8932 20.5196 68.8932 20.3518V19.8697H69.8932ZM83.1019 19.8697V20.3518C83.1019 20.5945 83.075 20.8264 83.0151 21.0432L82.0513 20.7764C82.083 20.6619 82.1019 20.5218 82.1019 20.3518V19.8697H83.1019ZM74.2372 20.3518V19.8697H75.2372V20.3518C75.2372 20.5195 75.2497 20.6615 75.2717 20.7802L74.2885 20.9624C74.2532 20.7721 74.2372 20.5678 74.2372 20.3518ZM52.1101 20.8988C51.9865 20.7977 51.8682 20.6877 51.755 20.5692L52.4783 19.8786C52.5624 19.9667 52.6487 20.0469 52.737 20.1196C52.8609 20.2139 52.9894 20.2987 53.1226 20.3742L52.6295 21.2442C52.4537 21.1445 52.2848 21.0327 52.123 20.909L52.1164 20.904L52.1101 20.8988ZM13.199 20.5954C12.971 20.847 12.7188 21.0614 12.4421 21.236L11.9085 20.3903C12.1037 20.2671 12.287 20.1125 12.4582 19.9238L13.199 20.5954ZM99.6059 20.8999V19.9317H100.606V20.8999H99.6059ZM58.0787 20.0441V20.7132L57.9391 20.8583C57.791 21.0124 57.6247 21.1478 57.4417 21.2649L56.9029 20.4225C56.9654 20.3825 57.024 20.3398 57.0787 20.2946V20.0441H58.0787ZM62.1603 20.6379C62.1127 20.495 62.0844 20.3282 62.0667 20.1527L63.0616 20.0523C63.074 20.175 63.0897 20.255 63.1031 20.3023C63.124 20.3483 63.1443 20.39 63.164 20.4275L62.2777 20.8907C62.2435 20.8252 62.2102 20.7558 62.1778 20.6829L62.168 20.6608L62.1603 20.6379ZM12.18 21.3856C11.8847 21.5372 11.5693 21.6444 11.2357 21.7084L11.0475 20.7263C11.2915 20.6795 11.5161 20.6024 11.7233 20.496L12.18 21.3856ZM54.1066 21.7655C53.7006 21.6953 53.316 21.5775 52.9545 21.4108L53.3733 20.5027C53.6516 20.6311 53.9523 20.724 54.277 20.7801L54.1066 21.7655ZM23.1788 20.5043C23.3737 20.7672 23.5806 21.0159 23.7993 21.2506L23.0679 21.9325C22.8231 21.6699 22.5924 21.3924 22.3755 21.0999L23.1788 20.5043ZM62.5003 21.2401C62.4456 21.1718 62.3953 21.0971 62.3487 21.0184L63.2089 20.5085C63.2313 20.5463 63.2514 20.5762 63.2687 20.5994C63.2999 20.6323 63.3294 20.6667 63.357 20.7027L62.5646 21.3126C62.5559 21.3013 62.5467 21.2909 62.5371 21.2813L62.5176 21.2618L62.5003 21.2401ZM57.1115 21.4477C56.7687 21.6111 56.3834 21.7202 55.962 21.7818L55.8174 20.7923C56.159 20.7424 56.4448 20.6577 56.6814 20.545L57.1115 21.4477ZM47.3455 20.5569C47.5664 20.8169 47.8006 21.0634 48.0482 21.2964L47.3629 22.0246C47.0881 21.766 46.8283 21.4925 46.5834 21.2043L47.3455 20.5569ZM28.3982 20.5691C28.5084 20.7147 28.6209 20.8347 28.7346 20.9322C28.8294 21.0134 28.9249 21.0863 29.0211 21.1512L28.4616 21.9801C28.3321 21.8927 28.2062 21.7963 28.0838 21.6914C27.9095 21.542 27.7489 21.3682 27.6009 21.1727L28.3982 20.5691ZM36.9238 21.3552C37.1463 21.1271 37.3569 20.8845 37.5556 20.6274L38.3469 21.2388C38.1252 21.5258 37.8895 21.7974 37.6397 22.0534L36.9238 21.3552ZM94.5771 20.6762L95.1073 21.4809L94.2723 22.0311L93.7421 21.2263L94.5771 20.6762ZM10.9434 21.7529C10.7848 21.7709 10.623 21.7798 10.4582 21.7798H10.0766V20.7798H10.4582C10.5872 20.7798 10.7111 20.7728 10.8303 20.7593L10.9434 21.7529ZM7.97419 20.768H8.97419V21.2798H8.85573V21.7798H7.97419V20.768ZM9.84773 21.7798H9.08465V20.7798H9.84773V21.7798ZM62.6035 21.3754C62.5958 21.3601 62.5879 21.3464 62.5798 21.334L63.4157 20.7852C63.4415 20.8244 63.4651 20.8648 63.4867 20.9063C63.545 21.0048 63.5732 21.1068 63.5887 21.1882L62.607 21.3756C62.6071 21.376 62.6073 21.3765 62.6075 21.3771C62.6095 21.3825 62.614 21.3941 62.6226 21.4095L63.6068 21.3187C63.6123 21.3785 63.6147 21.4406 63.6147 21.5038C63.6147 21.8403 63.4687 22.1436 63.265 22.4041L62.4773 21.788C62.5983 21.6333 62.6147 21.5418 62.6147 21.5038C62.6147 21.4647 62.6132 21.434 62.611 21.4106L62.6226 21.4095L62.6174 21.4032L62.6035 21.3754ZM16.9325 21.888C17.0314 21.5734 17.1034 21.2151 17.1458 20.8105L18.1403 20.9147C18.0922 21.3742 18.0086 21.7993 17.8866 22.1877L16.9325 21.888ZM55.0507 21.8438C54.8501 21.8438 54.6535 21.834 54.4611 21.8142L54.5634 20.8195C54.7203 20.8356 54.8826 20.8438 55.0507 20.8438C55.2209 20.8438 55.3821 20.8373 55.5345 20.8245L55.6178 21.8211C55.4354 21.8363 55.2463 21.8438 55.0507 21.8438ZM31.5938 21.2568C31.7483 21.1725 31.9045 21.0555 32.0613 20.8997L32.766 21.6092C32.5515 21.8222 32.3207 21.9994 32.0726 22.1347C31.8735 22.2433 31.6703 22.333 31.463 22.4027L31.1442 21.4549C31.2929 21.4049 31.4428 21.3392 31.5938 21.2568ZM86.4949 22.0545C86.2647 21.9091 86.076 21.7193 85.9362 21.487L86.793 20.9714C86.8472 21.0615 86.9196 21.1376 87.0168 21.2012C87.1539 21.2748 87.3195 21.3373 87.5179 21.3847L87.2857 22.3573C87.0081 22.2911 86.7515 22.1967 86.521 22.0699L86.5077 22.0626L86.4949 22.0545ZM82.842 21.4675C82.7096 21.703 82.5283 21.8978 82.3033 22.0478L82.2976 22.0516C82.0776 22.1939 81.8235 22.2946 81.5461 22.3627L81.3075 21.3916C81.5011 21.344 81.6455 21.2818 81.7514 21.2139C81.8452 21.1507 81.9165 21.0733 81.9703 20.9776L82.842 21.4675ZM69.261 21.9875C69.4654 21.8248 69.6148 21.6141 69.716 21.3728L68.7938 20.9862C68.7486 21.094 68.6938 21.1615 68.6363 21.2066L68.6291 21.2122L68.6222 21.2181C68.5659 21.2658 68.464 21.3228 68.2879 21.3687L68.5404 22.3363C68.809 22.2662 69.0585 22.1565 69.261 21.9875ZM3.549 21.3728C3.4467 21.6169 3.29505 21.8296 3.0871 21.9929C2.87675 22.1582 2.62038 22.2667 2.3426 22.3366L2.09876 21.3668C2.28557 21.3198 2.40087 21.2604 2.46928 21.2066C2.52677 21.1615 2.58158 21.094 2.62677 20.9862L3.549 21.3728ZM74.8302 21.9815C74.6308 21.8128 74.4897 21.5958 74.3961 21.3518L75.3299 20.9938C75.3717 21.1029 75.4214 21.1696 75.4695 21.2124C75.5396 21.2654 75.6511 21.3215 75.8237 21.3662L75.5729 22.3343C75.3014 22.2639 75.0513 22.1556 74.8443 21.9929L74.8371 21.9873L74.8302 21.9815ZM99.6059 22.1586V21.1904H100.606V22.1586H99.6059ZM29.2015 21.2633C29.4101 21.3819 29.6239 21.4659 29.8438 21.5175L29.6157 22.4911C29.2991 22.4169 28.996 22.2968 28.7074 22.1327L29.2015 21.2633ZM76.6572 22.4518C76.4194 22.4518 76.1969 22.4394 75.9911 22.4131L76.1177 21.4212C76.2739 21.4411 76.4532 21.4518 76.6572 21.4518H77.1572V21.9518C77.1572 22.1208 77.1464 22.2884 77.1246 22.4546L76.6572 22.3935V22.4518ZM1.91824 22.414C1.70987 22.4396 1.48407 22.4518 1.24219 22.4518V22.3824L0.76836 22.4353C0.750793 22.2778 0.742188 22.1166 0.742188 21.9518V21.4518H1.24219C1.45154 21.4518 1.63569 21.4412 1.79599 21.4215L1.91824 22.414ZM68.1277 22.4142C67.9261 22.4398 67.7074 22.4518 67.4732 22.4518V22.3795L66.9978 22.4299C66.9813 22.2742 66.9732 22.1147 66.9732 21.9518V21.4518H67.4732C67.6742 21.4518 67.8499 21.4414 68.0019 21.4221L68.1277 22.4142ZM88.4899 22.4838C88.2271 22.4838 87.9779 22.4694 87.7433 22.4397L87.8692 21.4476C88.0563 21.4714 88.263 21.4838 88.4899 21.4838H88.9899V21.9838C88.9899 22.1476 88.9796 22.3093 88.9588 22.4688L88.4899 22.4075V22.4838ZM81.1052 22.4428C80.884 22.4705 80.6465 22.4838 80.3939 22.4838V22.4049L79.9218 22.4611C79.9031 22.3046 79.8939 22.1455 79.8939 21.9838V21.4838H80.3939C80.6123 21.4838 80.8076 21.4723 80.9808 21.4506L81.1052 22.4428ZM24.0013 21.4598C24.2299 21.6886 24.471 21.9034 24.7245 22.1041L24.1039 22.8882C23.8199 22.6634 23.5499 22.4229 23.2939 22.1667L24.0013 21.4598ZM48.2747 21.5025C48.5287 21.726 48.7962 21.9365 49.0773 22.1339L48.5026 22.9522C48.192 22.7341 47.8958 22.5011 47.6141 22.2532L48.2747 21.5025ZM30.3932 21.5798C30.552 21.5798 30.7095 21.5635 30.866 21.5307L31.0708 22.5095C30.8472 22.5563 30.6211 22.5798 30.3932 22.5798C30.2288 22.5798 30.0662 22.5685 29.9058 22.5456L30.0468 21.5556C30.1594 21.5716 30.2748 21.5798 30.3932 21.5798ZM35.9848 22.1804C36.2419 21.9875 36.4864 21.7801 36.7186 21.5584L37.4093 22.2815C37.1485 22.5306 36.8738 22.7635 36.5851 22.9802L35.9848 22.1804ZM95.2664 21.7223L95.5277 22.119C95.5284 22.1201 95.5291 22.1211 95.5298 22.1222C95.6623 22.3172 95.7968 22.4926 95.9329 22.6489L95.1785 23.3054C95.0128 23.115 94.8535 22.9065 94.7002 22.6805L94.6964 22.6749L94.4313 22.2725L95.2664 21.7223ZM61.8118 22.3687C61.9956 22.2422 62.1456 22.1236 62.265 22.0136L62.9426 22.7491C62.7797 22.8991 62.5891 23.0479 62.374 23.1958L62.3651 23.2019C62.1964 23.3126 62.0157 23.419 61.8236 23.5216L61.3527 22.6394C61.5191 22.5506 61.672 22.4603 61.8118 22.3687ZM16.5928 22.649C16.6785 22.5102 16.7561 22.3568 16.8249 22.188L17.751 22.5652C17.6629 22.7816 17.5607 22.985 17.4436 23.1745C17.33 23.3584 17.1975 23.5255 17.0458 23.6743L16.3455 22.9605C16.4374 22.8703 16.52 22.767 16.5928 22.649ZM24.9557 22.2806C25.0854 22.3761 25.2183 22.4683 25.3543 22.557C25.495 22.6488 25.6387 22.7359 25.7852 22.8183L25.295 23.6899C25.1294 23.5967 24.9671 23.4983 24.8081 23.3946C24.6562 23.2956 24.5077 23.1926 24.3626 23.0857L24.9557 22.2806ZM49.3314 22.3063C49.4729 22.3991 49.6177 22.4888 49.7659 22.5755C49.8945 22.6497 50.0251 22.7208 50.1576 22.789L49.7 23.6782C49.5529 23.6025 49.4078 23.5234 49.2648 23.4409L49.2624 23.4395C49.0992 23.3441 48.9394 23.2451 48.7829 23.1425L49.3314 22.3063ZM35.3475 22.6137C35.4851 22.5292 35.6195 22.4412 35.7507 22.3498L36.3225 23.1702C36.1758 23.2724 36.0257 23.3707 35.8724 23.4649C35.7153 23.5628 35.5553 23.6557 35.3925 23.7437L34.9171 22.8639C35.0622 22.7855 35.2047 22.7027 35.3447 22.6154L35.3475 22.6137ZM99.6059 23.4172V22.449H100.606V23.4172H99.6059ZM1.79461 22.541C1.84128 22.7871 1.91848 23.0083 2.0241 23.2074L1.14068 23.676C0.985056 23.3826 0.876242 23.0654 0.812127 22.7274L1.79461 22.541ZM68.0231 22.5415C68.0677 22.7892 68.1416 23.0116 68.2425 23.2115L67.3498 23.6621C67.2022 23.3698 67.0994 23.0545 67.0389 22.7188L68.0231 22.5415ZM75.9937 22.9054C76.0357 22.7863 76.0695 22.6663 76.0952 22.5454L77.0734 22.7534C77.0385 22.9172 76.9929 23.0789 76.9367 23.2382C76.8836 23.3887 76.8233 23.5329 76.7555 23.6705L75.8584 23.2287C75.9076 23.1288 75.9528 23.0211 75.9937 22.9054ZM87.6887 23.2056C87.8015 22.9946 87.882 22.7756 87.9312 22.5476L88.9087 22.7586C88.8396 23.0789 88.7265 23.3854 88.5706 23.677L87.6887 23.2056ZM80.948 22.5529C80.9943 22.7863 81.0704 23.0056 81.1761 23.2124L80.2857 23.6676C80.1373 23.3773 80.0312 23.0702 79.9671 22.7478L80.948 22.5529ZM60.0289 23.211C60.41 23.0758 60.7532 22.9344 61.0595 22.7876L61.4917 23.6894C61.1489 23.8537 60.7725 24.0082 60.3634 24.1534L60.0289 23.211ZM50.3983 22.9086C50.6659 23.0368 50.9411 23.1532 51.2242 23.2577L50.8776 24.1958C50.5659 24.0806 50.2621 23.9522 49.9662 23.8104L50.3983 22.9086ZM96.6901 23.3192C96.5263 23.2146 96.3635 23.0861 96.2019 22.9317L95.5111 23.6547C95.7166 23.8511 95.932 24.0221 96.1575 24.1656L96.166 24.1709C96.3255 24.268 96.5025 24.3481 96.6934 24.414L97.0197 23.4687C96.8862 23.4227 96.7775 23.372 96.6901 23.3192ZM26.0518 22.9614C26.3486 23.1135 26.6572 23.2475 26.9779 23.3633L26.6381 24.3038C26.2785 24.1739 25.931 24.0231 25.5959 23.8515L26.0518 22.9614ZM33.7403 23.3839C34.0552 23.2732 34.3595 23.1453 34.6533 23.0002L35.0959 23.897C34.7655 24.0601 34.4241 24.2035 34.0719 24.3273L33.7403 23.3839ZM15.4053 23.4312C15.7155 23.366 15.965 23.2567 16.1651 23.1124L16.75 23.9235C16.4207 24.1611 16.0373 24.3202 15.6111 24.4098L15.4053 23.4312ZM59.17 23.4868C59.3564 23.4326 59.5359 23.3771 59.7086 23.3204L60.0206 24.2705C59.8355 24.3312 59.6441 24.3904 59.4464 24.4479L59.4405 24.4496C59.2728 24.4962 59.1022 24.5394 58.929 24.5794L58.7041 23.605C58.8624 23.5685 59.0177 23.5291 59.17 23.4868ZM51.4783 23.3477C51.7588 23.4429 52.0469 23.5268 52.3426 23.5994L52.104 24.5706C51.7811 24.4912 51.4655 24.3993 51.1572 24.2948L51.4783 23.3477ZM2.21098 23.4998C2.18286 23.4627 2.15609 23.425 2.13064 23.3866L1.29697 23.9389C1.39022 24.0796 1.49475 24.2128 1.61022 24.3383L1.75878 24.4998H2.4668V23.4998H2.21098ZM87.5069 23.4998C87.5325 23.4634 87.5571 23.4268 87.5806 23.3901L87.7522 23.4998H87.7539V23.5009L88.4231 23.9287C88.3378 24.0621 88.2435 24.1916 88.1403 24.3172L87.9903 24.4998H87.2419V23.4998H87.5069ZM68.4173 23.4998C68.392 23.4646 68.3679 23.4287 68.3448 23.3922L67.4992 23.9261C67.589 24.0683 67.69 24.203 67.8018 24.3301L67.9511 24.4998H68.6756V23.4998H68.4173ZM81.0979 23.5081L80.4295 23.9222C80.5137 24.0582 80.6074 24.1893 80.7103 24.3156L80.8604 24.4998H81.6099V23.4998H81.3475C81.3239 23.4653 81.3012 23.4306 81.2795 23.3956L81.1113 23.4998H81.0979V23.5081ZM75.703 23.4998C75.7227 23.4702 75.7419 23.4398 75.7607 23.4085L75.9129 23.4998H75.9532V23.5239L76.6185 23.9225C76.5339 24.0637 76.4402 24.1963 76.3373 24.3199L76.1874 24.4998H75.4547V23.4998H75.703ZM27.2656 23.4613C27.582 23.5628 27.9099 23.6475 28.2496 23.7152L28.0542 24.6959C27.6787 24.6211 27.3139 24.527 26.9602 24.4136L27.2656 23.4613ZM14.6822 23.4998C14.8461 23.4998 14.9992 23.491 15.1417 23.4741L15.2596 24.4671C15.0742 24.4891 14.8816 24.4998 14.6822 24.4998H14.1936V23.4998H14.6822ZM32.492 23.7217C32.8242 23.6566 33.146 23.5752 33.4575 23.4778L33.7561 24.4321C33.4086 24.5409 33.0512 24.6311 32.6842 24.703L32.492 23.7217ZM2.75997 23.4998H3.7372V24.4998H2.75997V23.4998ZM4.03037 23.4998H5.0076V24.4998H4.03037V23.4998ZM5.30077 23.4998H6.278V24.4998H5.30077V23.4998ZM6.57117 23.4998H7.5484V24.4998H6.57117V23.4998ZM7.84157 23.4998H8.8188V24.4998H7.84157V23.4998ZM9.11197 23.4998H10.0892V24.4998H9.11197V23.4998ZM10.3824 23.4998H11.3596V24.4998H10.3824V23.4998ZM11.6528 23.4998H12.63V24.4998H11.6528V23.4998ZM12.9232 23.4998H13.9004V24.4998H12.9232V23.4998ZM68.9747 23.4998H69.9716V24.4998H68.9747V23.4998ZM70.2707 23.4998H71.2676V24.4998H70.2707V23.4998ZM71.5667 23.4998H72.5636V24.4998H71.5667V23.4998ZM72.8627 23.4998H73.8596V24.4998H72.8627V23.4998ZM74.1587 23.4998H75.1556V24.4998H74.1587V23.4998ZM81.9171 23.4998H82.9411V24.4998H81.9171V23.4998ZM83.2483 23.4998H84.2723V24.4998H83.2483V23.4998ZM84.5795 23.4998H85.6035V24.4998H84.5795V23.4998ZM85.9107 23.4998H86.9347V24.4998H85.9107V23.4998ZM97.2517 23.5373C97.4877 23.5969 97.771 23.6409 98.105 23.6664L98.0289 24.6635C97.6529 24.6348 97.3112 24.5837 97.0072 24.507L97.2517 23.5373ZM52.6062 23.6608C52.8958 23.7244 53.1926 23.7776 53.4966 23.8201L53.358 24.8105C53.0292 24.7644 52.7071 24.7068 52.3915 24.6374L52.6062 23.6608ZM57.4591 23.8249C57.7903 23.7828 58.1105 23.7301 58.4197 23.6669L58.6201 24.6466C58.285 24.7151 57.9399 24.7719 57.5849 24.8169L57.4591 23.8249ZM98.373 23.6823C98.5165 23.6886 98.6675 23.6918 98.8259 23.6918H99.3182V24.6918H98.8259C98.6542 24.6918 98.4887 24.6883 98.3294 24.6814L98.373 23.6823ZM99.6136 23.6918H100.106V23.7077H100.606V24.6918H99.6136V24.1918H99.6059V23.7077H99.6136V23.6918ZM28.5508 23.7702C28.8794 23.8249 29.2187 23.8644 29.5688 23.8883L29.5007 24.8859C29.1198 24.8599 28.7484 24.8169 28.3866 24.7566L28.5508 23.7702ZM31.2 23.889C31.542 23.8659 31.8742 23.8277 32.1968 23.7748L32.3587 24.7616C32.0036 24.8199 31.6398 24.8615 31.2675 24.8867L31.2 23.889ZM53.7665 23.8549C54.0619 23.8897 54.3639 23.9148 54.6727 23.93L54.6234 24.9288C54.2928 24.9125 53.9681 24.8856 53.6495 24.848L53.7665 23.8549ZM56.19 23.931C56.5256 23.9164 56.8515 23.8923 57.1678 23.8587L57.2732 24.8532C56.9353 24.889 56.5887 24.9146 56.2335 24.9301L56.19 23.931ZM29.8772 23.9052C30.0467 23.9122 30.2187 23.9158 30.3932 23.9158C30.5637 23.9158 30.732 23.9123 30.8981 23.9055L30.9395 24.9046C30.7593 24.9121 30.5772 24.9158 30.3932 24.9158C30.2052 24.9158 30.0193 24.912 29.8356 24.9043L29.8772 23.9052ZM54.946 23.9409C55.0967 23.9455 55.2489 23.9478 55.4027 23.9478C55.569 23.9478 55.7332 23.9456 55.8952 23.9413L55.9218 24.941C55.7507 24.9455 55.5777 24.9478 55.4027 24.9478C55.239 24.9478 55.0766 24.9453 54.9157 24.9405L54.946 23.9409Z" fill="#572316"/>
</svg>
