<svg width="4" height="14" viewBox="0 0 4 14" fill="none" xmlns="http://www.w3.org/2000/svg">
    <path fill-rule="evenodd" clip-rule="evenodd"
        d="M3.34525 2.07692C3.34525 2.94783 2.63924 3.65385 1.76833 3.65385C0.897419 3.65385 0.191406 2.94783 0.191406 2.07692C0.191406 1.20601 0.897419 0.5 1.76833 0.5C2.63924 0.5 3.34525 1.20601 3.34525 2.07692ZM3.34525 6.80769C3.34525 7.6786 2.63924 8.38462 1.76833 8.38462C0.897419 8.38462 0.191406 7.6786 0.191406 6.80769C0.191406 5.93678 0.897419 5.23077 1.76833 5.23077C2.63924 5.23077 3.34525 5.93678 3.34525 6.80769ZM1.76833 13.1154C2.63924 13.1154 3.34525 12.4094 3.34525 11.5385C3.34525 10.6676 2.63924 9.96154 1.76833 9.96154C0.897419 9.96154 0.191406 10.6676 0.191406 11.5385C0.191406 12.4094 0.897419 13.1154 1.76833 13.1154Z"
        fill="#572E16" />
</svg>
    