<svg width="30" height="30" viewBox="0 0 30 30" fill="none" xmlns="http://www.w3.org/2000/svg">
<path fill-rule="evenodd" clip-rule="evenodd" d="M30 15C30 6.71573 23.2843 3.62117e-07 15 0C6.71573 -3.62117e-07 3.62117e-07 6.71573 0 15C-3.62117e-07 23.2843 6.71573 30 15 30C23.2843 30 30 23.2843 30 15ZM17.9339 10.4993C18.4398 10.0296 18.4691 9.23866 17.9993 8.73277C17.5296 8.22688 16.7387 8.19759 16.2328 8.66734L10.3994 14.084C10.1447 14.3205 10 14.6524 10 15C10 15.3476 10.1447 15.6795 10.3994 15.916L16.2328 21.3327C16.7387 21.8024 17.5296 21.7731 17.9993 21.2672C18.4691 20.7613 18.4398 19.9704 17.9339 19.5007L13.087 15L17.9339 10.4993Z" fill="#FFF4DD"/>
</svg>
