<svg width="358" height="383" viewBox="0 0 358 383" fill="none" xmlns="http://www.w3.org/2000/svg">
<path d="M0 0H358V383H0V0Z" fill="white"/>
<path d="M110.895 177.152H112.911V198.872H110.895V177.152ZM112.359 185.96H116.367V187.616H112.359V185.96ZM105.351 179.504H107.295C107.295 185.672 104.463 191.24 97.4553 194.768L96.3512 193.232C102.351 190.184 105.351 185.552 105.351 179.816V179.504ZM97.3593 179.504H106.383V181.136H97.3593V179.504Z" fill="black"/>
<path d="M120.757 178.592H134.317V180.2H120.757V178.592ZM118.309 187.904H137.917V189.536H118.309V187.904ZM127.069 188.984H129.061V198.896H127.069V188.984ZM133.381 178.592H135.325V180.464C135.325 182.72 135.325 185.264 134.509 188.936L132.541 188.672C133.381 185.168 133.381 182.648 133.381 180.464V178.592Z" fill="black"/>
<path d="M147.559 187.712H167.167V189.368H147.559V187.712ZM156.367 188.984H158.335V198.872H156.367V188.984ZM149.143 178.688H154.879V180.296H149.143V178.688ZM154.207 178.688H156.151V179.408C156.151 180.872 156.151 183.968 154.975 188.432L153.007 188.12C154.207 183.872 154.207 180.92 154.207 179.408V178.688ZM157.735 178.688H163.855V180.296H157.735V178.688ZM163.015 178.688H164.959V179.672C164.959 181.304 164.959 184.208 164.023 188.408L162.055 188.12C163.015 184.088 163.015 181.304 163.015 179.672V178.688Z" fill="black"/>
<path d="M170.885 179.288H180.869V193.424H170.885V179.288ZM178.925 180.896H172.829V191.816H178.925V180.896ZM185.405 177.152H187.397V198.896H185.405V177.152Z" fill="black"/>
<path d="M194.379 183.68H209.115V185.312H194.379V183.68ZM191.715 188.216H211.395V189.848H191.715V188.216ZM194.379 177.968H196.347V184.496H194.379V177.968ZM194.235 196.712H209.235V198.344H194.235V196.712ZM194.235 192.008H196.203V197.144H194.235V192.008Z" fill="black"/>
<path d="M226.316 179.048H227.949V182.936C227.949 187.736 225.357 192.416 221.924 194.24L220.701 192.656C223.844 191.072 226.316 186.896 226.316 182.936V179.048ZM226.676 179.048H228.285V182.936C228.285 186.752 230.708 190.712 233.781 192.248L232.557 193.832C229.197 192.032 226.676 187.592 226.676 182.936V179.048ZM235.676 177.176H237.693V198.872H235.676V177.176ZM237.212 185.96H241.245V187.64H237.212V185.96Z" fill="black"/>
<path d="M248.851 179.552H250.507V181.76C250.507 185.744 248.059 189.08 244.411 190.4L243.379 188.816C246.643 187.664 248.851 184.856 248.851 181.76V179.552ZM249.235 179.552H250.891V181.76C250.891 184.688 253.147 187.328 256.363 188.408L255.331 189.968C251.731 188.744 249.235 185.576 249.235 181.76V179.552ZM243.907 178.976H255.787V180.584H243.907V178.976ZM258.859 177.2H260.875V193.064H258.859V177.2ZM246.931 196.76H261.523V198.392H246.931V196.76ZM246.931 191.576H248.899V197.48H246.931V191.576Z" fill="black"/>
</svg>
