<svg width="358" height="383" viewBox="0 0 358 383" fill="none" xmlns="http://www.w3.org/2000/svg">
<path d="M0 0H358V383H0V0Z" fill="white"/>
<path d="M148.214 171.2H150.23V187.232H148.214V171.2ZM136.286 190.76H150.878V192.392H136.286V190.76ZM136.286 185.72H138.254V191.624H136.286V185.72ZM138.326 175.328H139.958V176.24C139.958 180.128 137.486 183.344 133.862 184.592L132.878 183.032C136.094 181.976 138.326 179.24 138.326 176.24V175.328ZM138.662 175.328H140.294V176.24C140.294 179.072 142.55 181.64 145.79 182.648L144.83 184.208C141.158 183.032 138.662 179.96 138.662 176.24V175.328ZM133.382 174.08H145.19V175.688H133.382V174.08ZM138.326 171.272H140.294V174.848H138.326V171.272Z" fill="black"/>
<path d="M156.972 172.592H170.532V174.2H156.972V172.592ZM154.524 181.904H174.132V183.536H154.524V181.904ZM163.284 182.984H165.276V192.896H163.284V182.984ZM169.596 172.592H171.54V174.464C171.54 176.72 171.54 179.264 170.724 182.936L168.756 182.672C169.596 179.168 169.596 176.648 169.596 174.464V172.592Z" fill="black"/>
<path d="M183.798 188.48H203.454V190.136H183.798V188.48ZM192.606 183.584H194.598V189.368H192.606V183.584ZM192.606 175.712H194.358V176.192C194.358 180.632 190.326 183.512 185.622 184.328L184.854 182.744C189.102 182.072 192.606 179.552 192.606 176.192V175.712ZM192.87 175.712H194.598V176.192C194.598 179.552 198.102 182.072 202.35 182.744L201.582 184.328C196.878 183.512 192.87 180.632 192.87 176.192V175.712ZM185.598 174.584H201.582V176.24H185.598V174.584ZM192.606 171.632H194.598V175.184H192.606V171.632Z" fill="black"/>
<path d="M222.364 171.176H224.284V192.872H222.364V171.176ZM218.692 179.864H222.868V181.52H218.692V179.864ZM217.444 171.656H219.316V191.768H217.444V171.656ZM206.644 185.864H208.06C211.228 185.864 213.388 185.744 215.908 185.216L216.1 186.872C213.508 187.424 211.324 187.52 208.06 187.52H206.644V185.864ZM206.644 173.816H214.708V175.448H208.612V186.608H206.644V173.816Z" fill="black"/>
<path d="M162.827 199.152H164.819V220.896H162.827V199.152ZM153.371 200.832C156.587 200.832 158.891 203.784 158.891 208.392C158.891 213.024 156.587 215.976 153.371 215.976C150.179 215.976 147.875 213.024 147.875 208.392C147.875 203.784 150.179 200.832 153.371 200.832ZM153.371 202.632C151.259 202.632 149.771 204.888 149.771 208.392C149.771 211.92 151.259 214.224 153.371 214.224C155.507 214.224 156.971 211.92 156.971 208.392C156.971 204.888 155.507 202.632 153.371 202.632Z" fill="black"/>
<path d="M170.385 201.288H180.369V215.424H170.385V201.288ZM178.425 202.896H172.329V213.816H178.425V202.896ZM184.905 199.152H186.897V220.896H184.905V199.152Z" fill="black"/>
<path d="M196.975 202.272H198.583V205.8C198.583 210.384 195.823 214.992 192.367 216.696L191.215 215.112C194.359 213.624 196.975 209.544 196.975 205.8V202.272ZM197.359 202.272H198.967V205.8C198.967 209.472 201.583 213.216 204.775 214.584L203.647 216.168C200.143 214.536 197.359 210.312 197.359 205.8V202.272ZM191.935 201.384H204.055V203.064H191.935V201.384ZM206.983 199.176H208.975V220.872H206.983V199.176Z" fill="black"/>
</svg>
