<svg width="358" height="383" viewBox="0 0 358 383" fill="none" xmlns="http://www.w3.org/2000/svg">
<path d="M0.121094 0.424805H357.907V382.536H0.121094V0.424805Z" fill="#FFF7F7"/>
<path d="M134.497 173.288H144.481V187.424H134.497V173.288ZM142.537 174.896H136.441V185.816H142.537V174.896ZM149.017 171.152H151.009V192.896H149.017V171.152Z" fill="black"/>
<path d="M166.847 174.368H171.719V176.024H166.847V174.368ZM166.847 178.832H171.719V180.464H166.847V178.832ZM160.775 172.4H162.383V175.16C162.383 179.408 160.055 183.032 156.431 184.496L155.375 182.912C158.615 181.664 160.775 178.568 160.775 175.16V172.4ZM161.135 172.4H162.767V175.16C162.767 178.328 164.855 181.328 167.999 182.576L166.895 184.136C163.463 182.696 161.135 179.192 161.135 175.16V172.4ZM171.191 171.2H173.183V187.376H171.191V171.2ZM159.239 190.76H173.711V192.392H159.239V190.76ZM159.239 185.744H161.231V191.648H159.239V185.744Z" fill="black"/>
<path d="M189.929 173.048H191.561V176.936C191.561 181.736 188.969 186.416 185.537 188.24L184.313 186.656C187.457 185.072 189.929 180.896 189.929 176.936V173.048ZM190.289 173.048H191.897V176.936C191.897 180.752 194.321 184.712 197.393 186.248L196.169 187.832C192.809 186.032 190.289 181.592 190.289 176.936V173.048ZM199.289 171.176H201.305V192.872H199.289V171.176ZM200.825 179.96H204.857V181.64H200.825V179.96Z" fill="black"/>
<path d="M212.463 173.552H214.119V175.76C214.119 179.744 211.671 183.08 208.023 184.4L206.991 182.816C210.255 181.664 212.463 178.856 212.463 175.76V173.552ZM212.847 173.552H214.503V175.76C214.503 178.688 216.759 181.328 219.975 182.408L218.943 183.968C215.343 182.744 212.847 179.576 212.847 175.76V173.552ZM207.519 172.976H219.399V174.584H207.519V172.976ZM222.471 171.2H224.487V187.064H222.471V171.2ZM210.543 190.76H225.135V192.392H210.543V190.76ZM210.543 185.576H212.511V191.48H210.543V185.576Z" fill="black"/>
</svg>
