<svg width="62" height="34" viewBox="0 0 62 34" fill="none" xmlns="http://www.w3.org/2000/svg">
<g id="&#236;&#138;&#164;&#237;&#130;&#181; &#237;&#145;&#156;&#236;&#139;&#156; &#236;&#157;&#180;&#235;&#175;&#184;&#236;&#167;&#128;">
<g id="&#236;&#138;&#164;&#237;&#130;&#181; &#237;&#145;&#156;&#236;&#139;&#156; &#236;&#157;&#180;&#235;&#175;&#184;&#236;&#167;&#128;_2">
<path d="M21.3203 13.7969C21.2188 12.8203 20.3984 12.2578 19.1797 12.2656C17.8906 12.2578 17.125 12.8828 17.1172 13.7344C17.1094 14.6875 18.1172 15.0781 19.0547 15.2969L20.1172 15.5781C21.8047 15.9688 23.4297 16.8594 23.4297 18.8281C23.4297 20.8125 21.8594 22.1719 19.1484 22.1719C16.5156 22.1719 14.8438 20.9062 14.7578 18.6719H16.7578C16.8516 19.8516 17.8438 20.4297 19.1328 20.4375C20.4688 20.4297 21.3906 19.7812 21.3984 18.8125C21.3906 17.9219 20.5781 17.5469 19.3516 17.2344L18.0703 16.9062C16.2109 16.4219 15.0547 15.4844 15.0547 13.8594C15.0547 11.8594 16.8281 10.5312 19.2109 10.5312C21.6094 10.5312 23.2422 11.8828 23.2734 13.7969H21.3203Z" fill="#F9F1E1"/>
<path d="M25.1172 22V10.6875H27.1484V15.8906H27.3047L31.7266 10.6875H34.2109L29.8359 15.7656L34.2578 22H31.8047L28.4141 17.1406L27.1484 18.625V22H25.1172Z" fill="#F9F1E1"/>
<path d="M37.5391 10.6875V22H35.5078V10.6875H37.5391Z" fill="#F9F1E1"/>
<path d="M39.6484 22V10.6875H43.8984C46.4922 10.6875 47.875 12.2656 47.8828 14.4375C47.875 16.6016 46.4766 18.1719 43.8672 18.1719H41.6797V22H39.6484ZM41.6797 16.5H43.5859C45.1172 16.4922 45.8047 15.6328 45.8047 14.4375C45.8047 13.2266 45.1172 12.3906 43.5859 12.3906H41.6797V16.5Z" fill="#F9F1E1"/>
<path fill-rule="evenodd" clip-rule="evenodd" d="M16.236 33.4404L16.279 31.9411C16.4267 31.9453 16.5749 31.9474 16.7237 31.9474H17.2216V33.4474H16.7237C16.5606 33.4474 16.398 33.4451 16.236 33.4404ZM15.7507 33.4196L15.8366 31.922C15.5397 31.905 15.2452 31.8795 14.9534 31.8457L14.781 33.3358C15.1016 33.3729 15.4249 33.4009 15.7507 33.4196ZM14.2989 33.2729L14.5145 31.7885C14.2211 31.7459 13.9304 31.6949 13.6428 31.6358L13.341 33.1051C13.6571 33.1701 13.9765 33.2261 14.2989 33.2729ZM44.6054 33.4474V31.9474H45.1033C45.2521 31.9474 45.4004 31.9453 45.5481 31.9411L45.591 33.4404C45.429 33.4451 45.2664 33.4474 45.1033 33.4474H44.6054ZM46.0764 33.4196L45.9905 31.922C46.2873 31.905 46.5818 31.8795 46.8736 31.8457L47.046 33.3358C46.7255 33.3729 46.4022 33.4009 46.0764 33.4196ZM47.5281 33.2729L47.3125 31.7885C47.606 31.7459 47.8966 31.6949 48.1843 31.6358L48.4861 33.1051C48.1699 33.1701 47.8505 33.2261 47.5281 33.2729ZM48.9618 33.0001L48.617 31.5403C48.9052 31.4722 49.1902 31.396 49.4718 31.3118L49.9015 32.7489C49.5919 32.8415 49.2786 32.9253 48.9618 33.0001ZM50.3656 32.6027L49.894 31.1788C50.1749 31.0857 50.4521 30.9847 50.7255 30.876L51.2798 32.2699C50.9793 32.3894 50.6744 32.5004 50.3656 32.6027ZM51.729 32.0836L51.1342 30.7066C51.4057 30.5893 51.6732 30.4643 51.9363 30.3319L52.6106 31.6718C52.3214 31.8173 52.0274 31.9547 51.729 32.0836ZM53.0417 31.4469L52.3287 30.1272C52.5888 29.9867 52.8444 29.8387 53.0953 29.6837L53.8839 30.9596C53.6084 31.1299 53.3276 31.2924 53.0417 31.4469ZM54.294 30.6978L53.4686 29.4453C53.7154 29.2827 53.9572 29.113 54.1938 28.9367L55.0904 30.1392C54.8307 30.3328 54.5651 30.5192 54.294 30.6978ZM55.4763 29.8427L54.5452 28.6666C54.7769 28.4832 55.0031 28.2931 55.2236 28.0967L56.2212 29.2169C55.9791 29.4325 55.7307 29.6412 55.4763 29.8427ZM56.5798 28.8882L55.5503 27.7973C55.7651 27.5945 55.9741 27.3855 56.1769 27.1707L57.2678 28.2002C57.0451 28.4361 56.8157 28.6655 56.5798 28.8882ZM57.5965 27.8416L56.4764 26.844C56.6727 26.6235 56.8628 26.3972 57.0463 26.1655L58.2223 27.0967C58.0208 27.3511 57.8122 27.5995 57.5965 27.8416ZM58.5188 26.7108L57.3163 25.8142C57.4927 25.5776 57.6623 25.3358 57.825 25.089L59.0774 25.9144C58.8988 26.1855 58.7125 26.4511 58.5188 26.7108ZM59.3393 25.5043L58.0633 24.7156C58.2183 24.4648 58.3663 24.2092 58.5068 23.9491L59.8265 24.6621C59.6721 24.9479 59.5096 25.2288 59.3393 25.5043ZM60.0514 24.2309L58.7115 23.5567C58.8439 23.2936 58.9689 23.0261 59.0862 22.7546L60.4632 23.3493C60.3343 23.6478 60.1969 23.9418 60.0514 24.2309ZM60.6495 22.9002L59.2556 22.3459C59.3644 22.0725 59.4654 21.7952 59.5584 21.5143L60.9823 21.986C60.88 22.2948 60.769 22.5996 60.6495 22.9002ZM61.1285 21.5219L59.6914 21.0922C59.7756 20.8106 59.8518 20.5256 59.9199 20.2374L61.3797 20.5822C61.3049 20.899 61.2211 21.2123 61.1285 21.5219ZM61.4847 20.1065L60.0154 19.8046C60.0745 19.517 60.1255 19.2263 60.1681 18.9329L61.6525 19.1485C61.6057 19.4709 61.5497 19.7903 61.4847 20.1065ZM61.7154 18.6664L60.2254 18.494C60.2591 18.2022 60.2846 17.9077 60.3017 17.6108L61.7992 17.6968C61.7805 18.0226 61.7525 18.3458 61.7154 18.6664ZM61.8201 17.2114L60.3207 17.1684C60.3249 17.0208 60.327 16.8725 60.327 16.7237C60.327 16.5749 60.3249 16.4267 60.3207 16.279L61.8201 16.236C61.8247 16.398 61.827 16.5606 61.827 16.7237C61.827 16.8868 61.8247 17.0494 61.8201 17.2114ZM61.7992 15.7507L60.3017 15.8366C60.2846 15.5397 60.2591 15.2452 60.2254 14.9534L61.7154 14.781C61.7525 15.1016 61.7805 15.4249 61.7992 15.7507ZM61.6525 14.2989L60.1681 14.5145C60.1255 14.2211 60.0745 13.9304 60.0154 13.6428L61.4847 13.341C61.5497 13.6571 61.6057 13.9765 61.6525 14.2989ZM61.3797 12.8652L59.9199 13.21C59.8518 12.9218 59.7756 12.6368 59.6914 12.3552L61.1285 11.9256C61.2211 12.2351 61.3049 12.5484 61.3797 12.8652ZM60.9823 11.4614L59.5584 11.9331C59.4654 11.6522 59.3644 11.3749 59.2556 11.1015L60.6495 10.5473C60.769 10.8478 60.88 11.1526 60.9823 11.4614ZM60.4632 10.0981L59.0862 10.6929C58.9689 10.4213 58.8439 10.1539 58.7115 9.89072L60.0514 9.21647C60.1969 9.50563 60.3343 9.7996 60.4632 10.0981ZM59.8265 8.78531L58.5068 9.49836C58.3663 9.23821 58.2183 8.98259 58.0633 8.73178L59.3392 7.94312C59.5095 8.21864 59.6721 8.49947 59.8265 8.78531ZM59.0774 7.533L57.825 8.35842C57.6623 8.11162 57.4927 7.8698 57.3163 7.63326L58.5188 6.7366C58.7125 6.99636 58.8988 7.26193 59.0774 7.533ZM58.2223 6.35076C58.0208 6.09634 57.8122 5.84792 57.5965 5.60581L56.4764 6.60339C56.6727 6.82392 56.8628 7.05017 57.0463 7.28188L58.2223 6.35076ZM57.2678 5.24721L56.1769 6.27676C55.9741 6.0619 55.7651 5.85293 55.5503 5.65014L56.5798 4.55926C56.8157 4.7819 57.0451 5.01131 57.2678 5.24721ZM56.2212 4.23049L55.2236 5.35068C55.0031 5.15429 54.7769 4.96423 54.5452 4.78078L55.4763 3.60476C55.7307 3.8062 55.9791 4.01488 56.2212 4.23049ZM55.0904 3.30826L54.1938 4.51076C53.9572 4.33438 53.7154 4.16472 53.4686 4.00207L54.294 2.7496C54.5651 2.92825 54.8307 3.11457 55.0904 3.30826ZM53.8839 2.48779L53.0953 3.76373C52.8444 3.6087 52.5888 3.46076 52.3287 3.3202L53.0417 2.00052C53.3276 2.15496 53.6084 2.31749 53.8839 2.48779ZM52.6106 1.77562L51.9363 3.11554C51.6732 2.98313 51.4057 2.85815 51.1342 2.74086L51.729 1.36383C52.0274 1.49275 52.3214 1.63011 52.6106 1.77562ZM51.2798 1.17755L50.7255 2.5714C50.4521 2.46268 50.1749 2.36167 49.894 2.26864L50.3656 0.844712C50.6744 0.947 50.9792 1.05804 51.2798 1.17755ZM49.9015 0.698502L49.4718 2.13564C49.1902 2.05146 48.9052 1.97521 48.617 1.90715L48.9618 0.447306C49.2786 0.522123 49.5919 0.60595 49.9015 0.698502ZM48.4861 0.342296L48.1843 1.81162C47.8966 1.75253 47.606 1.70155 47.3125 1.65893L47.5281 0.174507C47.8505 0.221332 48.1699 0.277353 48.4861 0.342296ZM47.046 0.111623L46.8736 1.60169C46.5818 1.56793 46.2873 1.54241 45.9905 1.52537L46.0764 0.0278367C46.4022 0.0465275 46.7255 0.0745439 47.046 0.111623ZM17.2216 0H16.7237C16.5606 0 16.398 0.00233512 16.236 0.00697374L16.279 1.50636C16.4267 1.50213 16.5749 1.5 16.7237 1.5H17.2216V0ZM15.7506 0.0278367L15.8366 1.52537C15.5397 1.54241 15.2452 1.56793 14.9534 1.60169L14.781 0.111623C15.1016 0.0745439 15.4249 0.0465275 15.7506 0.0278367ZM14.2989 0.174507L14.5145 1.65893C14.2211 1.70155 13.9304 1.75253 13.6428 1.81162L13.341 0.342296C13.6571 0.277353 13.9765 0.221332 14.2989 0.174507ZM12.8652 0.447305L13.21 1.90715C12.9218 1.97521 12.6368 2.05146 12.3552 2.13564L11.9255 0.698503C12.2351 0.60595 12.5484 0.522123 12.8652 0.447305ZM11.4614 0.844713L11.9331 2.26864C11.6522 2.36168 11.3749 2.46268 11.1015 2.5714L10.5472 1.17755C10.8478 1.05805 11.1526 0.947 11.4614 0.844713ZM10.0981 1.36383L10.6929 2.74086C10.4213 2.85815 10.1538 2.98313 9.89072 3.11554L9.21646 1.77562C9.50562 1.63011 9.79959 1.49275 10.0981 1.36383ZM8.78531 2.00052L9.49835 3.32021C9.23821 3.46076 8.98259 3.6087 8.73177 3.76373L7.94311 2.48779C8.21863 2.31749 8.49947 2.15496 8.78531 2.00052ZM7.533 2.7496L8.35841 4.00207C8.11161 4.16472 7.8698 4.33438 7.63325 4.51076L6.73659 3.30826C6.99635 3.11457 7.26192 2.92824 7.533 2.7496ZM6.35075 3.60476L7.28187 4.78078C7.05017 4.96423 6.82391 5.15429 6.60339 5.35068L5.6058 4.23049C5.84791 4.01488 6.09633 3.8062 6.35075 3.60476ZM5.2472 4.55926L6.27676 5.65014C6.06189 5.85293 5.85292 6.0619 5.65014 6.27676L4.55926 5.24721C4.78189 5.01131 5.01131 4.7819 5.2472 4.55926ZM4.23049 5.60581L5.35068 6.60339C5.15429 6.82391 4.96423 7.05017 4.78078 7.28188L3.60476 6.35076C3.8062 6.09634 4.01488 5.84792 4.23049 5.60581ZM3.30826 6.7366L4.51076 7.63326C4.33437 7.8698 4.16472 8.11162 4.00207 8.35842L2.74959 7.53301C2.92824 7.26193 3.11457 6.99635 3.30826 6.7366ZM2.48779 7.94312L3.76372 8.73178C3.60869 8.98259 3.46076 9.23821 3.3202 9.49836L2.00052 8.78532C2.15496 8.49947 2.31749 8.21864 2.48779 7.94312ZM1.77562 9.21647L3.11554 9.89072C2.98313 10.1539 2.85814 10.4213 2.74086 10.6929L1.36382 10.0981C1.49275 9.7996 1.63011 9.50563 1.77562 9.21647ZM1.17755 10.5473L2.5714 11.1015C2.46268 11.3749 2.36167 11.6522 2.26863 11.9331L0.844711 11.4614C0.946999 11.1526 1.05804 10.8478 1.17755 10.5473ZM0.698501 11.9256L2.13564 12.3552C2.05146 12.6368 1.97521 12.9218 1.90715 13.21L0.447305 12.8652C0.522122 12.5484 0.60595 12.2351 0.698501 11.9256ZM0.342296 13.341L1.81162 13.6428C1.75253 13.9304 1.70155 14.2211 1.65893 14.5145L0.174507 14.2989C0.221331 13.9765 0.277353 13.6571 0.342296 13.341ZM0.111623 14.781L1.60169 14.9534C1.56793 15.2452 1.54241 15.5397 1.52537 15.8366L0.0278367 15.7507C0.0465274 15.4249 0.0745437 15.1016 0.111623 14.781ZM0.00697371 16.236L1.50636 16.279C1.50213 16.4267 1.5 16.5749 1.5 16.7237C1.5 16.8725 1.50213 17.0208 1.50636 17.1684L0.00697374 17.2114C0.00233511 17.0494 0 16.8868 0 16.7237C0 16.5606 0.00233511 16.398 0.00697371 16.236ZM0.0278367 17.6968C0.0465275 18.0226 0.0745439 18.3458 0.111623 18.6664L1.60169 18.494C1.56793 18.2022 1.54241 17.9077 1.52537 17.6108L0.0278367 17.6968ZM0.174507 19.1485C0.221332 19.4709 0.277353 19.7903 0.342296 20.1065L1.81162 19.8046C1.75253 19.517 1.70155 19.2263 1.65893 18.9329L0.174507 19.1485ZM0.447305 20.5822L1.90715 20.2374C1.97521 20.5256 2.05146 20.8106 2.13564 21.0922L0.698502 21.5219C0.60595 21.2123 0.522122 20.899 0.447305 20.5822ZM0.844712 21.986L2.26863 21.5143C2.36167 21.7952 2.46268 22.0725 2.5714 22.3459L1.17755 22.9002C1.05804 22.5996 0.946999 22.2948 0.844712 21.986ZM1.36382 23.3493L2.74086 22.7546C2.85814 23.0261 2.98313 23.2936 3.11554 23.5567L1.77562 24.2309C1.63011 23.9418 1.49275 23.6478 1.36382 23.3493ZM2.00052 24.6621L3.3202 23.9491C3.46076 24.2092 3.6087 24.4648 3.76372 24.7156L2.48779 25.5043C2.31749 25.2288 2.15496 24.9479 2.00052 24.6621ZM2.7496 25.9144L4.00207 25.089C4.16472 25.3358 4.33437 25.5776 4.51076 25.8142L3.30826 26.7108C3.11457 26.4511 2.92824 26.1855 2.7496 25.9144ZM3.60476 27.0967L4.78078 26.1655C4.96423 26.3972 5.15429 26.6235 5.35068 26.844L4.23049 27.8416C4.01488 27.5995 3.8062 27.3511 3.60476 27.0967ZM4.55926 28.2002L5.65014 27.1707C5.85293 27.3855 6.0619 27.5945 6.27676 27.7973L5.2472 28.8882C5.01131 28.6655 4.78189 28.4361 4.55926 28.2002ZM5.6058 29.2169L6.60339 28.0967C6.82391 28.2931 7.05017 28.4832 7.28187 28.6666L6.35075 29.8427C6.09634 29.6412 5.84792 29.4325 5.6058 29.2169ZM6.7366 30.1392L7.63325 28.9367C7.8698 29.113 8.11161 29.2827 8.35842 29.4453L7.533 30.6978C7.26192 30.5192 6.99635 30.3328 6.7366 30.1392ZM7.94312 30.9596C8.21864 31.1299 8.49947 31.2925 8.78531 31.4469L9.49836 30.1272C9.23821 29.9867 8.98259 29.8387 8.73178 29.6837L7.94312 30.9596ZM9.21646 31.6718L9.89072 30.3319C10.1539 30.4643 10.4213 30.5893 10.6929 30.7066L10.0981 32.0836C9.7996 31.9547 9.50563 31.8173 9.21646 31.6718ZM11.9256 32.7489C12.2351 32.8415 12.5484 32.9253 12.8652 33.0001L13.21 31.5403C12.9218 31.4722 12.6368 31.396 12.3552 31.3118L11.9256 32.7489ZM11.4614 32.6027L11.9331 31.1788C11.6522 31.0857 11.3749 30.9847 11.1015 30.876L10.5472 32.2699C10.8478 32.3894 11.1526 32.5004 11.4614 32.6027ZM17.7195 0V1.5H18.7153V0H17.7195ZM19.2131 0V1.5H20.2089V0H19.2131ZM20.7068 0V1.5H21.7026V0H20.7068ZM22.2005 0V1.5H23.1962V0H22.2005ZM23.6941 0V1.5H24.6899V0H23.6941ZM25.1878 0V1.5H26.1836V0H25.1878ZM26.6815 0V1.5H27.6772V0H26.6815ZM28.1751 0V1.5H29.1709V0H28.1751ZM29.6688 0V1.5H30.6646V0H29.6688ZM31.1625 0V1.5H32.1582V0H31.1625ZM32.6561 0V1.5H33.6519V0H32.6561ZM34.1498 0V1.5H35.1456V0H34.1498ZM35.6435 0V1.5H36.6392V0H35.6435ZM37.1371 0V1.5H38.1329V0H37.1371ZM38.6308 0V1.5H39.6266V0H38.6308ZM40.1245 0V1.5H41.1202V0H40.1245ZM41.6181 0V1.5H42.6139V0H41.6181ZM43.1118 0V1.5H44.1076V0H43.1118ZM44.6054 0V1.5H45.1033C45.2521 1.5 45.4004 1.50213 45.5481 1.50636L45.591 0.00697372C45.429 0.00233511 45.2664 0 45.1033 0H44.6054ZM44.1076 33.4474V31.9474H43.1118V33.4474H44.1076ZM42.6139 33.4474V31.9474H41.6181V33.4474H42.6139ZM41.1202 33.4474V31.9474H40.1245V33.4474H41.1202ZM39.6266 33.4474V31.9474H38.6308V33.4474H39.6266ZM38.1329 33.4474V31.9474H37.1371V33.4474H38.1329ZM36.6392 33.4474V31.9474H35.6435V33.4474H36.6392ZM35.1456 33.4474V31.9474H34.1498V33.4474H35.1456ZM33.6519 33.4474V31.9474H32.6561V33.4474H33.6519ZM32.1582 33.4474V31.9474H31.1625V33.4474H32.1582ZM30.6646 33.4474V31.9474H29.6688V33.4474H30.6646ZM29.1709 33.4474V31.9474H28.1751V33.4474H29.1709ZM27.6772 33.4474V31.9474H26.6815V33.4474H27.6772ZM26.1836 33.4474V31.9474H25.1878V33.4474H26.1836ZM24.6899 33.4474V31.9474H23.6941V33.4474H24.6899ZM23.1962 33.4474V31.9474H22.2005V33.4474H23.1962ZM21.7026 33.4474V31.9474H20.7068V33.4474H21.7026ZM20.2089 33.4474V31.9474H19.2131V33.4474H20.2089ZM18.7153 33.4474V31.9474H17.7195V33.4474H18.7153Z" fill="#EDDEBF"/>
</g>
</g>
</svg>
