<svg width="628" height="352" viewBox="0 0 628 352" fill="none" xmlns="http://www.w3.org/2000/svg">
    <path d="M2 32C2 15.4315 15.4315 2 32 2H596C612.569 2 626 15.4315 626 32V352H2V32Z"
        fill="#FFF4DD" />
    <path fill-rule="evenodd" clip-rule="evenodd"
        d="M0.5 350.5H3.5V352H2H0.5V350.5ZM0.5 349.5H3.5V346.5H0.5V349.5ZM0.5 345.5H3.5V342.5H0.5V345.5ZM0.5 341.5H3.5V338.5H0.5V341.5ZM0.5 337.5H3.5V334.5H0.5V337.5ZM0.5 333.5H3.5V330.5H0.5V333.5ZM0.5 329.5H3.5V326.5H0.5V329.5ZM0.5 325.5H3.5V322.5H0.5V325.5ZM0.5 321.5H3.5V318.5H0.5V321.5ZM0.5 317.5H3.5V314.5H0.5V317.5ZM0.5 313.5H3.5V310.5H0.5V313.5ZM0.5 309.5H3.5V306.5H0.5V309.5ZM0.5 305.5H3.5V302.5H0.5V305.5ZM0.5 301.5H3.5V298.5H0.5V301.5ZM0.5 297.5H3.5V294.5H0.5V297.5ZM0.5 293.5H3.5V290.5H0.5V293.5ZM0.5 289.5H3.5V286.5H0.5V289.5ZM0.5 285.5H3.5V282.5H0.5V285.5ZM0.5 281.5H3.5V278.5H0.5V281.5ZM0.5 277.5H3.5V274.5H0.5V277.5ZM0.5 273.5H3.5V270.5H0.5V273.5ZM0.5 269.5H3.5V266.5H0.5V269.5ZM0.5 265.5H3.5V262.5H0.5V265.5ZM0.5 261.5H3.5V258.5H0.5V261.5ZM0.5 257.5H3.5V254.5H0.5V257.5ZM0.5 253.5H3.5V250.5H0.5V253.5ZM0.5 249.5H3.5V246.5H0.5V249.5ZM0.5 245.5H3.5V242.5H0.5V245.5ZM0.5 241.5H3.5V238.5H0.5V241.5ZM0.5 237.5H3.5V234.5H0.5V237.5ZM0.5 233.5H3.5V230.5H0.5V233.5ZM0.5 229.5H3.5V226.5H0.5V229.5ZM0.5 225.5H3.5V222.5H0.5V225.5ZM0.5 221.5H3.5V218.5H0.5V221.5ZM0.5 217.5H3.5V214.5H0.5V217.5ZM0.5 213.5H3.5V210.5H0.5V213.5ZM0.5 209.5H3.5V206.5H0.5V209.5ZM0.5 205.5H3.5V202.5H0.5V205.5ZM0.5 201.5H3.5V198.5H0.5V201.5ZM0.5 197.5H3.5V194.5H0.5V197.5ZM0.5 193.5H3.5V190.5H0.5V193.5ZM0.5 189.5H3.5V186.5H0.5V189.5ZM0.5 185.5H3.5V182.5H0.5V185.5ZM0.5 181.5H3.5V178.5H0.5V181.5ZM0.5 177.5H3.5V174.5H0.5V177.5ZM0.5 173.5H3.5V170.5H0.5V173.5ZM0.5 169.5H3.5V166.5H0.5V169.5ZM0.5 165.5H3.5V162.5H0.5V165.5ZM0.5 161.5H3.5V158.5H0.5V161.5ZM0.5 157.5H3.5V154.5H0.5V157.5ZM0.5 153.5H3.5V150.5H0.5V153.5ZM0.5 149.5H3.5V146.5H0.5V149.5ZM0.5 145.5H3.5V142.5H0.5V145.5ZM0.5 141.5H3.5V138.5H0.5V141.5ZM0.5 137.5H3.5V134.5H0.5V137.5ZM0.5 133.5H3.5V130.5H0.5V133.5ZM0.5 129.5H3.5V126.5H0.5V129.5ZM0.5 125.5H3.5V122.5H0.5V125.5ZM0.5 121.5H3.5V118.5H0.5V121.5ZM0.5 117.5H3.5V114.5H0.5V117.5ZM0.5 113.5H3.5V110.5H0.5V113.5ZM0.5 109.5H3.5V106.5H0.5V109.5ZM0.5 105.5H3.5V102.5H0.5V105.5ZM0.5 101.5H3.5V98.5H0.5V101.5ZM0.5 97.5H3.5V94.5H0.5V97.5ZM0.5 93.5H3.5V90.5H0.5V93.5ZM0.5 89.5H3.5V86.5H0.5V89.5ZM0.5 85.5H3.5V82.5H0.5V85.5ZM0.5 81.5H3.5V78.5H0.5V81.5ZM0.5 77.5H3.5V74.5H0.5V77.5ZM0.5 73.5H3.5V70.5H0.5V73.5ZM0.5 69.5H3.5V66.5H0.5V69.5ZM0.5 65.5H3.5V62.5H0.5V65.5ZM0.5 61.5H3.5V58.5H0.5V61.5ZM0.5 57.5H3.5V54.5H0.5V57.5ZM0.5 53.5H3.5V50.5H0.5V53.5ZM0.5 49.5H3.5V46.5H0.5V49.5ZM0.5 45.5H3.5V42.5H0.5V45.5ZM0.5 41.5H3.5V38.5H0.5V41.5ZM0.5 37.5H3.5V34.5H0.5V37.5ZM0.5 33.5H3.5V32C3.5 31.7065 3.50443 31.4141 3.51323 31.1228C3.51851 30.9481 3.52536 30.7737 3.53376 30.5998L0.537262 30.4549C0.528948 30.6269 0.522014 30.7993 0.516472 30.972C0.505518 31.3134 0.5 31.6561 0.5 32V33.5ZM3.95591 26.8936C3.79137 27.8036 3.66999 28.7288 3.59403 29.6671L0.603809 29.425C0.68772 28.3886 0.821844 27.366 1.00379 26.3598L3.95591 26.8936ZM4.85882 23.2784C4.57552 24.1607 4.33406 25.0618 4.13678 25.9795L1.2038 25.3489C1.42198 24.334 1.68906 23.3373 2.00244 22.3613L4.85882 23.2784ZM6.22946 19.8127C5.8318 20.652 5.47397 21.5138 5.15841 22.3956L2.33383 21.3848C2.68288 20.4094 3.07863 19.4563 3.51836 18.5282L6.22946 19.8127ZM8.04331 16.5555C7.53833 17.3371 7.07061 18.1449 6.64265 18.9764L3.97523 17.6035C4.4484 16.6842 4.96541 15.7913 5.52348 14.9275L8.04331 16.5555ZM10.2669 13.5621C9.66357 14.2725 9.09449 15.0128 8.56219 15.7805L6.09688 14.071C6.68505 13.2228 7.31379 12.4049 7.98025 11.6201L10.2669 13.5621ZM11.085 12.6397C11.0171 12.7131 10.9495 12.7868 10.8823 12.8609L8.66005 10.8456C8.74661 10.7501 8.83374 10.6552 8.92145 10.5608C9.46112 9.98013 10.0224 9.41986 10.6041 8.88126C10.6842 8.80711 10.7647 8.73337 10.8456 8.66005L12.8609 10.8823C12.7745 10.9607 12.6885 11.0396 12.6031 11.119C12.0783 11.6067 11.5719 12.114 11.085 12.6397ZM15.7805 8.56219C15.0128 9.09449 14.2725 9.66357 13.5621 10.2669L11.6201 7.98025C12.4049 7.31379 13.2228 6.68506 14.071 6.09688L15.7805 8.56219ZM18.9764 6.64265C18.1449 7.07061 17.3371 7.53833 16.5555 8.04331L14.9275 5.52348C15.7913 4.96541 16.6842 4.4484 17.6035 3.97523L18.9764 6.64265ZM22.3956 5.15841C21.5138 5.47397 20.652 5.8318 19.8127 6.22946L18.5282 3.51836C19.4563 3.07863 20.4094 2.68288 21.3848 2.33383L22.3956 5.15841ZM25.9794 4.13678C25.0618 4.33406 24.1607 4.57552 23.2784 4.85882L22.3613 2.00244C23.3373 1.68906 24.334 1.42199 25.3489 1.2038L25.9794 4.13678ZM29.6671 3.59403C28.7288 3.66999 27.8036 3.79137 26.8936 3.95591L26.3598 1.00379C27.366 0.821844 28.3886 0.68772 29.425 0.60381L29.6671 3.59403ZM31.0682 3.51493C30.9117 3.51995 30.7556 3.52623 30.5998 3.53376L30.4549 0.537262C30.6469 0.527981 30.8394 0.520421 31.0323 0.514596C31.3537 0.504888 31.6763 0.5 32 0.5H33.5V3.5H32C31.6882 3.5 31.3775 3.505 31.0682 3.51493ZM34.5 3.5H37.5V0.5H34.5V3.5ZM38.5 0.5V3.5H41.5V0.5H38.5ZM42.5 0.5V3.5H45.5V0.5H42.5ZM46.5 0.5V3.5H49.5V0.5H46.5ZM50.5 0.5V3.5H53.5V0.5H50.5ZM54.5 0.5V3.5H57.5V0.5H54.5ZM58.5 0.5V3.5H61.5V0.5H58.5ZM62.5 0.5V3.5H65.5V0.5H62.5ZM66.5 0.5V3.5H69.5V0.5H66.5ZM70.5 0.5V3.5H73.5V0.5H70.5ZM74.5 0.5V3.5H77.5V0.5H74.5ZM78.5 0.5V3.5H81.5V0.5H78.5ZM82.5 0.5V3.5H85.5V0.5H82.5ZM86.5 0.5V3.5H89.5V0.5H86.5ZM90.5 0.5V3.5H93.5V0.5H90.5ZM94.5 0.5V3.5H97.5V0.5H94.5ZM98.5 0.5V3.5H101.5V0.5H98.5ZM102.5 0.5V3.5H105.5V0.5H102.5ZM106.5 0.5V3.5H109.5V0.5H106.5ZM110.5 0.5V3.5H113.5V0.5H110.5ZM114.5 0.5V3.5H117.5V0.5H114.5ZM118.5 0.5V3.5H121.5V0.5H118.5ZM122.5 0.5V3.5H125.5V0.5H122.5ZM126.5 0.5V3.5H129.5V0.5H126.5ZM130.5 0.5V3.5H133.5V0.5H130.5ZM134.5 0.5V3.5H137.5V0.5H134.5ZM138.5 0.5V3.5H141.5V0.5H138.5ZM142.5 0.5V3.5H145.5V0.5H142.5ZM146.5 0.5V3.5H149.5V0.5H146.5ZM150.5 0.5V3.5H153.5V0.5H150.5ZM154.5 0.5V3.5H157.5V0.5H154.5ZM158.5 0.5V3.5H161.5V0.5H158.5ZM162.5 0.5V3.5H165.5V0.5H162.5ZM166.5 0.5V3.5H169.5V0.5H166.5ZM170.5 0.5V3.5H173.5V0.5H170.5ZM174.5 0.5V3.5H177.5V0.5H174.5ZM178.5 0.5V3.5H181.5V0.5H178.5ZM182.5 0.5V3.5H185.5V0.5H182.5ZM186.5 0.5V3.5H189.5V0.5H186.5ZM190.5 0.5V3.5H193.5V0.5H190.5ZM194.5 0.5V3.5H197.5V0.5H194.5ZM198.5 0.5V3.5H201.5V0.5H198.5ZM202.5 0.5V3.5H205.5V0.5H202.5ZM206.5 0.5V3.5H209.5V0.5H206.5ZM210.5 0.5V3.5H213.5V0.5H210.5ZM214.5 0.5V3.5H217.5V0.5H214.5ZM218.5 0.5V3.5H221.5V0.5H218.5ZM222.5 0.5V3.5H225.5V0.5H222.5ZM226.5 0.5V3.5H229.5V0.5H226.5ZM230.5 0.5V3.5H233.5V0.5H230.5ZM234.5 0.5V3.5H237.5V0.5H234.5ZM238.5 0.5V3.5H241.5V0.5H238.5ZM242.5 0.5V3.5H245.5V0.5H242.5ZM246.5 0.5V3.5H249.5V0.5H246.5ZM250.5 0.5V3.5H253.5V0.5H250.5ZM254.5 0.5V3.5H257.5V0.5H254.5ZM258.5 0.5V3.5H261.5V0.5H258.5ZM262.5 0.5V3.5H265.5V0.5H262.5ZM266.5 0.5V3.5H269.5V0.5H266.5ZM270.5 0.5V3.5H273.5V0.5H270.5ZM274.5 0.5V3.5H277.5V0.5H274.5ZM278.5 0.5V3.5H281.5V0.5H278.5ZM282.5 0.5V3.5H285.5V0.5H282.5ZM286.5 0.5V3.5H289.5V0.5H286.5ZM290.5 0.5V3.5H293.5V0.5H290.5ZM294.5 0.5V3.5H297.5V0.5H294.5ZM298.5 0.5V3.5H301.5V0.5H298.5ZM302.5 0.5V3.5H305.5V0.5H302.5ZM306.5 0.5V3.5H309.5V0.5H306.5ZM310.5 0.5V3.5H313.5V0.5H310.5ZM314.5 0.5V3.5H317.5V0.5H314.5ZM318.5 0.5V3.5H321.5V0.5H318.5ZM322.5 0.5V3.5H325.5V0.5H322.5ZM326.5 0.5V3.5H329.5V0.5H326.5ZM330.5 0.5V3.5H333.5V0.5H330.5ZM334.5 0.5V3.5H337.5V0.5H334.5ZM338.5 0.5V3.5H341.5V0.5H338.5ZM342.5 0.5V3.5H345.5V0.5H342.5ZM346.5 0.5V3.5H349.5V0.5H346.5ZM350.5 0.5V3.5H353.5V0.5H350.5ZM354.5 0.5V3.5H357.5V0.5H354.5ZM358.5 0.5V3.5H361.5V0.5H358.5ZM362.5 0.5V3.5H365.5V0.5H362.5ZM366.5 0.5V3.5H369.5V0.5H366.5ZM370.5 0.5V3.5H373.5V0.5H370.5ZM374.5 0.5V3.5H377.5V0.5H374.5ZM378.5 0.5V3.5H381.5V0.5H378.5ZM382.5 0.5V3.5H385.5V0.5H382.5ZM386.5 0.5V3.5H389.5V0.5H386.5ZM390.5 0.5V3.5H393.5V0.5H390.5ZM394.5 0.5V3.5H397.5V0.5H394.5ZM398.5 0.5V3.5H401.5V0.5H398.5ZM402.5 0.5V3.5H405.5V0.5H402.5ZM406.5 0.5V3.5H409.5V0.5H406.5ZM410.5 0.5V3.5H413.5V0.5H410.5ZM414.5 0.5V3.5H417.5V0.5H414.5ZM418.5 0.5V3.5H421.5V0.5H418.5ZM422.5 0.5V3.5H425.5V0.5H422.5ZM426.5 0.5V3.5H429.5V0.5H426.5ZM430.5 0.5V3.5H433.5V0.5H430.5ZM434.5 0.5V3.5H437.5V0.5H434.5ZM438.5 0.5V3.5H441.5V0.5H438.5ZM442.5 0.5V3.5H445.5V0.5H442.5ZM446.5 0.5V3.5H449.5V0.5H446.5ZM450.5 0.5V3.5H453.5V0.5H450.5ZM454.5 0.5V3.5H457.5V0.5H454.5ZM458.5 0.5V3.5H461.5V0.5H458.5ZM462.5 0.5V3.5H465.5V0.5H462.5ZM466.5 0.5V3.5H469.5V0.5H466.5ZM470.5 0.5V3.5H473.5V0.5H470.5ZM474.5 0.5V3.5H477.5V0.5H474.5ZM478.5 0.5V3.5H481.5V0.5H478.5ZM482.5 0.5V3.5H485.5V0.5H482.5ZM486.5 0.5V3.5H489.5V0.5H486.5ZM490.5 0.5V3.5H493.5V0.5H490.5ZM494.5 0.5V3.5H497.5V0.5H494.5ZM498.5 0.5V3.5H501.5V0.5H498.5ZM502.5 0.5V3.5H505.5V0.5H502.5ZM506.5 0.5V3.5H509.5V0.5H506.5ZM510.5 0.5V3.5H513.5V0.5H510.5ZM514.5 0.5V3.5H517.5V0.5H514.5ZM518.5 0.5V3.5H521.5V0.5H518.5ZM522.5 0.5V3.5H525.5V0.5H522.5ZM526.5 0.5V3.5H529.5V0.5H526.5ZM530.5 0.5V3.5H533.5V0.5H530.5ZM534.5 0.5V3.5H537.5V0.5H534.5ZM538.5 0.5V3.5H541.5V0.5H538.5ZM542.5 0.5V3.5H545.5V0.5H542.5ZM546.5 0.5V3.5H549.5V0.5H546.5ZM550.5 0.5V3.5H553.5V0.5H550.5ZM554.5 0.5V3.5H557.5V0.5H554.5ZM558.5 0.5V3.5H561.5V0.5H558.5ZM562.5 0.5V3.5H565.5V0.5H562.5ZM566.5 0.5V3.5H569.5V0.5H566.5ZM570.5 0.5V3.5H573.5V0.5H570.5ZM574.5 0.5V3.5H577.5V0.5H574.5ZM578.5 0.5V3.5H581.5V0.5H578.5ZM582.5 0.5V3.5H585.5V0.5H582.5ZM586.5 0.5V3.5H589.5V0.5H586.5ZM590.5 0.5V3.5H593.5V0.5H590.5ZM594.5 0.5V3.5H596C596.411 3.5 596.82 3.50869 597.226 3.52588C597.284 3.52833 597.342 3.53096 597.4 3.53376L597.545 0.537262C597.522 0.53615 597.499 0.535063 597.476 0.534001C596.987 0.511413 596.495 0.5 596 0.5H594.5ZM601.106 3.95591C600.196 3.79137 599.271 3.66999 598.333 3.59403L598.575 0.603809C599.611 0.68772 600.634 0.821844 601.64 1.00379L601.106 3.95591ZM604.722 4.85882C603.839 4.57552 602.938 4.33406 602.021 4.13678L602.651 1.2038C603.666 1.42198 604.663 1.68906 605.639 2.00244L604.722 4.85882ZM608.187 6.22946C607.348 5.8318 606.486 5.47397 605.604 5.15841L606.615 2.33383C607.591 2.68288 608.544 3.07863 609.472 3.51836L608.187 6.22946ZM611.445 8.04331C610.663 7.53833 609.855 7.07061 609.024 6.64265L610.396 3.97523C611.316 4.4484 612.209 4.96541 613.073 5.52348L611.445 8.04331ZM614.438 10.2669C613.728 9.66357 612.987 9.09449 612.22 8.56219L613.929 6.09688C613.982 6.13364 614.035 6.17056 614.088 6.20763C614.879 6.76379 615.644 7.35544 616.38 7.98025L614.438 10.2669ZM617.118 12.8609C616.491 12.1696 615.83 11.5092 615.139 10.8823L617.154 8.66004C617.918 9.35253 618.647 10.082 619.34 10.8455L617.118 12.8609ZM619.438 15.7805C618.906 15.0128 618.336 14.2725 617.733 13.5621L620.02 11.6201C620.686 12.4049 621.315 13.2228 621.903 14.071L619.438 15.7805ZM624.025 17.6035L621.357 18.9764C620.929 18.1449 620.462 17.3371 619.957 16.5555L622.477 14.9275C623.035 15.7913 623.552 16.6842 624.025 17.6035ZM625.666 21.3848L622.842 22.3956C622.526 21.5138 622.168 20.652 621.771 19.8127L624.482 18.5282C624.921 19.4563 625.317 20.4094 625.666 21.3848ZM626.796 25.3489L623.863 25.9795C623.666 25.0618 623.424 24.1607 623.141 23.2784L625.998 22.3613C626.311 23.3373 626.578 24.334 626.796 25.3489ZM624.406 29.6671C624.33 28.7288 624.209 27.8036 624.044 26.8936L626.996 26.3598C627.178 27.366 627.312 28.3886 627.396 29.4251L624.406 29.6671ZM624.5 32C624.5 31.5304 624.489 31.0636 624.466 30.5998L627.463 30.4549C627.487 30.967 627.5 31.4821 627.5 32V33.5H624.5V32ZM624.5 34.5V37.5H627.5V34.5H624.5ZM627.5 38.5H624.5V41.5H627.5V38.5ZM627.5 42.5H624.5V45.5H627.5V42.5ZM627.5 46.5H624.5V49.5H627.5V46.5ZM627.5 50.5H624.5V53.5H627.5V50.5ZM627.5 54.5H624.5V57.5H627.5V54.5ZM627.5 58.5H624.5V61.5H627.5V58.5ZM627.5 62.5H624.5V65.5H627.5V62.5ZM627.5 66.5H624.5V69.5H627.5V66.5ZM627.5 70.5H624.5V73.5H627.5V70.5ZM627.5 74.5H624.5V77.5H627.5V74.5ZM627.5 78.5H624.5V81.5H627.5V78.5ZM627.5 82.5H624.5V85.5H627.5V82.5ZM627.5 86.5H624.5V89.5H627.5V86.5ZM627.5 90.5H624.5V93.5H627.5V90.5ZM627.5 94.5H624.5V97.5H627.5V94.5ZM627.5 98.5H624.5V101.5H627.5V98.5ZM627.5 102.5H624.5V105.5H627.5V102.5ZM627.5 106.5H624.5V109.5H627.5V106.5ZM627.5 110.5H624.5V113.5H627.5V110.5ZM627.5 114.5H624.5V117.5H627.5V114.5ZM627.5 118.5H624.5V121.5H627.5V118.5ZM627.5 122.5H624.5V125.5H627.5V122.5ZM627.5 126.5H624.5V129.5H627.5V126.5ZM627.5 130.5H624.5V133.5H627.5V130.5ZM627.5 134.5H624.5V137.5H627.5V134.5ZM627.5 138.5H624.5V141.5H627.5V138.5ZM627.5 142.5H624.5V145.5H627.5V142.5ZM627.5 146.5H624.5V149.5H627.5V146.5ZM627.5 150.5H624.5V153.5H627.5V150.5ZM627.5 154.5H624.5V157.5H627.5V154.5ZM627.5 158.5H624.5V161.5H627.5V158.5ZM627.5 162.5H624.5V165.5H627.5V162.5ZM627.5 166.5H624.5V169.5H627.5V166.5ZM627.5 170.5H624.5V173.5H627.5V170.5ZM627.5 174.5H624.5V177.5H627.5V174.5ZM627.5 178.5H624.5V181.5H627.5V178.5ZM627.5 182.5H624.5V185.5H627.5V182.5ZM627.5 186.5H624.5V189.5H627.5V186.5ZM627.5 190.5H624.5V193.5H627.5V190.5ZM627.5 194.5H624.5V197.5H627.5V194.5ZM627.5 198.5H624.5V201.5H627.5V198.5ZM627.5 202.5H624.5V205.5H627.5V202.5ZM627.5 206.5H624.5V209.5H627.5V206.5ZM627.5 210.5H624.5V213.5H627.5V210.5ZM627.5 214.5H624.5V217.5H627.5V214.5ZM627.5 218.5H624.5V221.5H627.5V218.5ZM627.5 222.5H624.5V225.5H627.5V222.5ZM627.5 226.5H624.5V229.5H627.5V226.5ZM627.5 230.5H624.5V233.5H627.5V230.5ZM627.5 234.5H624.5V237.5H627.5V234.5ZM627.5 238.5H624.5V241.5H627.5V238.5ZM627.5 242.5H624.5V245.5H627.5V242.5ZM627.5 246.5H624.5V249.5H627.5V246.5ZM627.5 250.5H624.5V253.5H627.5V250.5ZM627.5 254.5H624.5V257.5H627.5V254.5ZM627.5 258.5H624.5V261.5H627.5V258.5ZM627.5 262.5H624.5V265.5H627.5V262.5ZM627.5 266.5H624.5V269.5H627.5V266.5ZM627.5 270.5H624.5V273.5H627.5V270.5ZM627.5 274.5H624.5V277.5H627.5V274.5ZM627.5 278.5H624.5V281.5H627.5V278.5ZM627.5 282.5H624.5V285.5H627.5V282.5ZM627.5 286.5H624.5V289.5H627.5V286.5ZM627.5 290.5H624.5V293.5H627.5V290.5ZM627.5 294.5H624.5V297.5H627.5V294.5ZM627.5 298.5H624.5V301.5H627.5V298.5ZM627.5 302.5H624.5V305.5H627.5V302.5ZM627.5 306.5H624.5V309.5H627.5V306.5ZM627.5 310.5H624.5V313.5H627.5V310.5ZM627.5 314.5H624.5V317.5H627.5V314.5ZM627.5 318.5H624.5V321.5H627.5V318.5ZM627.5 322.5H624.5V325.5H627.5V322.5ZM627.5 326.5H624.5V329.5H627.5V326.5ZM627.5 330.5H624.5V333.5H627.5V330.5ZM627.5 334.5H624.5V337.5H627.5V334.5ZM627.5 338.5H624.5V341.5H627.5V338.5ZM627.5 342.5H624.5V345.5H627.5V342.5ZM627.5 346.5H624.5V349.5H627.5V346.5ZM627.5 350.5H624.5V352H626H627.5V350.5Z"
        fill="#572E16" />
</svg>
    