<svg width="26" height="23" viewBox="0 0 26 23" fill="none" xmlns="http://www.w3.org/2000/svg">
<path d="M12.7109 3.0871V20.1082M10.8188 20.3648L12.2109 20.6962C12.3957 20.7402 12.4881 20.7622 12.5817 20.7712C12.6676 20.7794 12.7542 20.7794 12.8402 20.7712C12.9337 20.7622 13.0261 20.7402 13.2109 20.6962L14.6031 20.3648C15.0667 20.2545 15.2985 20.1993 15.5292 20.1528C17.2986 19.796 19.1233 19.796 20.8927 20.1528C21.1234 20.1993 21.3552 20.2545 21.8188 20.3648C22.04 20.4175 22.1506 20.4438 22.2398 20.4529C22.9564 20.526 23.6025 20.027 23.6989 19.3259C23.7109 19.2387 23.7109 19.1269 23.7109 18.9034V4.06883C23.7109 3.75379 23.7109 3.59627 23.6804 3.45849C23.5933 3.06638 23.328 2.73511 22.9604 2.55968C22.8313 2.49804 22.6754 2.46093 22.3636 2.38671C21.3585 2.14743 20.8559 2.02779 20.3518 1.94727C18.9339 1.72075 17.488 1.72075 16.07 1.94727C15.5659 2.02779 15.0634 2.14743 14.0583 2.38671L13.2109 2.58842C13.0261 2.63241 12.9338 2.65441 12.8402 2.66335C12.7542 2.67158 12.6676 2.67158 12.5816 2.66335C12.4881 2.6544 12.3957 2.63241 12.2109 2.58842L11.3636 2.3867C10.3585 2.14742 9.85601 2.02778 9.35194 1.94725C7.93392 1.72071 6.48795 1.72071 5.06993 1.94724C4.56586 2.02776 4.06332 2.14739 3.05824 2.38666C2.74647 2.46088 2.59059 2.49799 2.46144 2.55962C2.09387 2.73505 1.82853 3.06633 1.74151 3.45845C1.71094 3.59622 1.71094 3.75373 1.71094 4.06876V18.9034C1.71094 19.1269 1.71094 19.2387 1.72294 19.3259C1.81941 20.027 2.46552 20.526 3.18207 20.4529C3.27126 20.4438 3.38186 20.4175 3.60307 20.3648C4.06668 20.2545 4.29848 20.1993 4.52917 20.1528C6.29856 19.796 8.12332 19.796 9.89271 20.1528C10.1234 20.1993 10.3552 20.2545 10.8188 20.3648Z" stroke="#F9F1E1" stroke-width="3" stroke-linecap="round" stroke-linejoin="round"/>
</svg>
