<svg width="239" height="239" viewBox="0 0 239 239" fill="none" xmlns="http://www.w3.org/2000/svg">
    <rect x="1.23047" y="1.46191" width="236.538" height="236.538" rx="10" fill="#572E16"
        fill-opacity="0.4" stroke="#572E16" stroke-width="2" stroke-dasharray="2 1" />
    <path
        d="M109.25 112.172L115.522 106.996L122.988 114.761M120.002 111.177L124.482 108.19L128.962 112.371M111.639 118.942H126.572C127.892 118.942 128.962 117.872 128.962 116.553V101.62C128.962 100.3 127.892 99.2305 126.572 99.2305H111.639C110.32 99.2305 109.25 100.3 109.25 101.62V116.553C109.25 117.872 110.32 118.942 111.639 118.942Z"
        stroke="#F9F1E1" stroke-width="3" stroke-linecap="round" stroke-linejoin="round" />
    <path
        d="M91.916 129.824C91.9023 132.032 93.0098 134.261 94.9238 135.184L93.9941 136.4C92.6543 135.724 91.6904 134.418 91.1641 132.846C90.624 134.527 89.6123 135.922 88.1973 136.633L87.2676 135.416C89.2568 134.473 90.3916 132.107 90.3984 129.824V127.855H91.916V129.824ZM95.6621 139.217V126.857H97.1797V131.697H99.0801V132.996H97.1797V139.217H95.6621ZM104.289 129.373C104.289 130.911 105.342 132.415 107.311 133.023L106.531 134.213C105.13 133.762 104.111 132.832 103.544 131.656C102.99 132.935 101.938 133.953 100.475 134.459L99.6953 133.256C101.685 132.6 102.744 131 102.758 129.373V129.018H100.092V127.801H106.887V129.018H104.289V129.373ZM101.719 138.971V135.02H103.25V137.74H110.236V138.971H101.719ZM108.363 135.84V126.871H109.895V135.84H108.363ZM118.453 127.404C120.053 127.397 121.311 128.32 121.618 129.674H123.854V126.857H125.371V133.488H123.854V130.904H121.632C121.338 132.292 120.066 133.229 118.453 133.229C116.56 133.229 115.186 132.012 115.186 130.303C115.186 128.614 116.56 127.397 118.453 127.404ZM116.635 130.303C116.635 131.294 117.387 131.95 118.453 131.943C119.492 131.95 120.237 131.294 120.244 130.303C120.237 129.312 119.492 128.669 118.453 128.676C117.387 128.669 116.635 129.312 116.635 130.303ZM117.223 139.066V134.062H118.727V135.375H123.854V134.062H125.371V139.066H117.223ZM118.727 137.836H123.854V136.551H118.727V137.836ZM138.414 136.523V137.781H127.121V136.523H131.988V134.514H128.461V130.467H135.57V128.936H128.434V127.705H137.074V131.67H129.979V133.27H137.361V134.514H133.492V136.523H138.414ZM149.256 132.654V133.871H140.588V127.938H149.16V129.168H142.092V132.654H149.256ZM139.221 137.645V136.387H150.514V137.645H139.221Z"
        fill="#F9F1E1" />
</svg>
    